<?xml version="1.0" encoding="UTF-8"?>
<svg width="217px" height="310px" viewBox="0 0 217 310" version="1.1" xmlns="http://www.w3.org/2000/svg" xmlns:xlink="http://www.w3.org/1999/xlink">
    <!-- Generator: Sketch 41.2 (35397) - http://www.bohemiancoding.com/sketch -->
    <title>flower</title>
    <desc>Created with Sketch.</desc>
    <defs></defs>
    <g id="Page-1" stroke="none" stroke-width="1" fill="none" fill-rule="evenodd">
        <g id="images" transform="translate(-406.000000, -227.000000)">
            <g id="flower" transform="translate(392.000000, 227.000000)">
                <path d="M122.043896,178 C122.043896,178 120.043896,228 143.043896,262 C166.043896,296 182.043896,308 182.043896,308" id="Path-6" stroke="#FFEFDE" stroke-width="5"></path>
                <path d="M231.040651,146.401888 C231.040651,128.728776 160.040651,56 142.040651,111 C124.040651,166 231.040651,164.075 231.040651,146.401888 Z" id="Oval-4-Copy-5" fill="#F86872" transform="translate(185.520326, 124.125808) scale(-1, 1) translate(-185.520326, -124.125808) "></path>
                <path d="M103.516268,151.698171 C103.516268,134.025059 44.4450574,39.071677 18.2170365,107.63727 C-8.01098434,176.202863 103.516268,169.371283 103.516268,151.698171 Z" id="Oval-4-Copy-6" fill="#F86872" transform="translate(58.869571, 123.346072) rotate(-29.000000) translate(-58.869571, -123.346072) "></path>
                <path d="M114.981153,125.513707 C114.981153,115.952637 178.981153,91.5137071 162.981153,24.5137071 C156.843792,-1.1864949 91.9811535,-14.4862929 71.9811535,24.5137071 C51.7880575,63.8902443 114.981153,143.186819 114.981153,125.513707 Z" id="Oval-4-Copy-2" fill="#CA3842"></path>
                <path d="M147.974709,160.199875 C147.974709,150.638805 214.653512,144.170651 225,66.5719878 C229,36.5719878 167.974709,5.1998747 147.974709,44.1998747 C127.781613,83.5764119 147.974709,177.872987 147.974709,160.199875 Z" id="Oval-4-Copy-3" fill="#E74B56"></path>
                <path d="M18,155.663268 C18,146.102198 129,152.663268 129,69.2911545 C129,28.6632676 68.9811535,15.2911545 48.9811535,54.2911545 C28.7880575,93.6676917 18,173.33638 18,155.663268 Z" id="Oval-4-Copy-4" fill="#E74B56" transform="translate(73.500000, 94.592077) scale(-1, 1) translate(-73.500000, -94.592077) "></path>
                <path d="M130.658753,154.066361 C117.81312,132.084323 34.6587527,142.066361 59.6587527,191.066361 C84.6587527,240.066361 143.504385,176.048399 130.658753,154.066361 Z" id="Oval-4" fill="#FD818A"></path>
                <path d="M194.744543,152.584991 C189.744543,130.602954 92.0870428,142.518631 117.087043,191.518631 C142.087043,240.518631 199.744543,174.567029 194.744543,152.584991 Z" id="Oval-4-Copy" fill="#FD818A" transform="translate(154.025068, 175.609827) scale(-1, 1) translate(-154.025068, -175.609827) "></path>
                <g id="Group" transform="translate(55.000000, 36.000000)">
                    <path d="M68.2031889,141 C98.8549925,141 143.703189,74 131.456638,30.5570385 C126.445039,12.7790804 96.7031889,0 68.2031889,0 C31.4892649,5.63634966e-15 7.69758962,14.6248535 1.96827371,33.529566 C-10.2968111,74 37.5513852,141 68.2031889,141 Z" id="Oval-2" fill="#FE626D"></path>
                    <ellipse id="Oval-3" fill="#FFEFDE" cx="67.5" cy="40" rx="56.5" ry="33"></ellipse>
                    <ellipse id="Oval-3-Copy" fill="#F84C58" cx="68" cy="40" rx="26" ry="15"></ellipse>
                </g>
            </g>
        </g>
    </g>
</svg>