<?xml version="1.0" encoding="UTF-8"?>
<svg width="546px" height="340px" viewBox="0 0 546 340" version="1.1" xmlns="http://www.w3.org/2000/svg" xmlns:xlink="http://www.w3.org/1999/xlink">
    <!-- Generator: Sketch 41.2 (35397) - http://www.bohemiancoding.com/sketch -->
    <title>dinosaur</title>
    <desc>Created with Sketch.</desc>
    <defs>
        <linearGradient x1="50%" y1="5.81156627%" x2="50%" y2="59.9948715%" id="linearGradient-1">
            <stop stop-color="#EEB214" offset="0%"></stop>
            <stop stop-color="#FFE6A4" offset="100%"></stop>
        </linearGradient>
        <linearGradient x1="50%" y1="5.81156627%" x2="50%" y2="59.9948715%" id="linearGradient-2">
            <stop stop-color="#51C7CC" offset="0%"></stop>
            <stop stop-color="#CEFAFA" offset="100%"></stop>
        </linearGradient>
        <path d="M545.760695,50.1925831 C545.287674,51.2313732 543.444106,55.1739158 543.286432,54.2323224 C543.007472,52.5313796 541.521701,52.4584819 541.521701,52.4584819 L540.327021,55.5141044 C539.963158,53.8010119 538.416744,53.3089535 538.416744,53.3089535 C538.350036,56.862709 536.645949,61.4977784 536.749043,59.5356193 C537.034067,54.2991451 534.323296,53.588394 534.323296,53.588394 L533.334803,57.6949561 C532.340246,54.4388656 531.000021,53.9407322 531.000021,53.9407322 L528.950264,58.47253 C528.240732,55.854293 527.039988,54.0804526 527.039988,54.0804526 L525.414737,58.2599121 C524.75372,55.7145726 523.577233,53.7281144 523.577233,53.7281144 L521.806436,57.2697205 C521.218194,54.7183061 519.568684,54.5785858 519.568684,54.5785858 C519.568684,54.5785858 518.016206,57.6281334 517.96769,57.0692521 C517.779696,54.5785858 516.839718,54.7486801 516.839718,54.7486801 L515.723874,58.2599121 C515.560137,56.8141108 514.735382,55.289337 514.735382,55.289337 C514.735382,55.289337 513.461865,58.0290699 513.534638,57.7678537 C513.910629,56.2916783 512.261119,55.4290572 512.261119,55.4290572 L511.284756,57.8954244 C510.987602,56.8505595 509.811114,56.0000881 509.811114,56.0000881 L508.119155,58.5029041 C507.082149,56.7108393 505.432639,56.6622408 505.432639,56.6622408 L504.250089,58.8673917 C503.789195,57.5127122 501.763697,57.1360749 501.763697,57.1360749 L500.114189,58.9099153 C500.114189,58.9099153 499.180276,58.9038406 498.713319,58.9281397 C497.203291,59.0071122 495.681135,59.3412259 494.177171,60.3982404 C499.550201,62.7370369 504.923234,62.5365685 510.302328,62.2753523 C511.278693,62.2267539 517.78576,60.2585201 521.509282,61.2547866 C524.262506,61.9959117 522.224878,63.1015245 520.199379,63.2776937 C515.256919,63.7029295 513.728697,66.630981 511.848742,67.6819208 C510.896636,68.2104281 509.8475,68.568841 508.634627,69.0851987 C509.617055,69.6744538 510.520645,69.8870717 511.53946,70.3123075 C511.903322,70.4641774 511.454558,71.5211919 511.818421,71.6609121 C512.194412,71.8006324 513.837856,70.5249254 513.837856,70.5249254 C514.219911,71.0898814 513.765083,72.0618487 514.219911,72.1894195 C514.583774,72.292691 515.705681,72.0800731 516.233282,71.2660504 C516.530436,70.8104407 516.839718,72.6389543 517.367318,72.7543755 C517.816082,72.8515722 519.028956,72.6146551 519.210886,71.9039041 C519.374626,71.2235268 520.181186,73.4772762 520.86646,73.6048469 C521.309158,73.6838192 522.176363,73.5319493 522.631191,72.7543755 C522.788865,72.4931592 522.788865,74.1819525 523.092083,74.2427004 C523.565104,74.3338224 524.505082,74.0665314 524.929587,73.21606 C525.129711,72.8151234 525.451122,74.7104598 525.881693,74.8076564 C526.354714,74.910928 527.440236,74.8441053 528.034544,73.7445672 C528.210411,73.4226031 529.0291,75.4455101 529.380834,75.5487816 C529.920563,75.7006516 530.514871,75.2328922 531.254725,74.3095232 C531.52762,74.4006452 532.097671,75.7310255 532.388762,75.7978483 C533.237773,75.986167 533.310545,76.1866352 534.086785,74.9838256 C534.086785,74.9838256 534.638642,76.3810287 535.111662,76.5450481 C536.561048,77.0371066 537.798179,77.7600074 537.743599,80.1474021 C537.622312,84.8189204 534.129236,87.4979053 529.956949,88.761463 C525.3359,90.1586661 520.484405,89.7516547 516.039222,88.1904321 C509.926337,86.0460292 503.704295,86.1493007 497.597476,86.8479021 C481.332836,88.7128646 465.177357,91.2703536 449.907275,97.6488895 C445.625831,99.4348795 442.005402,102.040967 439.209728,105.716219 C431.859712,115.381219 426.45636,126.133608 421.707959,137.256559 C420.009935,141.229476 418.051144,145.099121 416.201512,149.005215 C414.163883,153.287946 415.291856,160.480505 418.839512,164.076783 C422.229494,167.515119 426.268364,166.069317 429.973693,164.836133 C436.571727,162.637058 443.103053,160.213213 449.585864,157.686098 C455.128698,155.529546 460.974749,154.782346 466.741964,154.624401 C474.413392,154.405708 476.196316,161.786586 479.689392,166.597824 C481.484446,169.070267 481.387416,172.484302 477.627507,175.442727 C477.93679,170.686162 477.051392,169.768868 473.164132,169.610923 C472.048287,171.536634 473.897921,171.560933 473.643217,173.681037 C473.41277,175.667495 469.877244,178.644144 469.877244,178.644144 C469.877244,178.644144 471.096181,175.515625 469.464866,173.523092 C468.324764,172.125888 467.663749,169.501577 466.626741,169.094565 C463.230695,167.739885 463.94629,165.048751 452.64837,169.039892 C442.872607,172.496451 439.197599,173.826831 429.506738,177.775448 C426.492745,179.233399 421.107585,181.620794 421.107585,181.620794 C421.107585,181.620794 423.005733,184.433425 424.62492,185.223148 C435.401304,190.471772 448.221381,189.548404 460.489599,187.489048 C469.101003,186.043246 480.768851,197.633957 481.066005,206.509234 C481.144842,208.677936 480.344344,211.782157 478.082335,213.20366 C478.500776,210.087288 477.779117,209.103172 476.15993,208.477468 C476.068964,208.507842 475.820325,208.501767 475.747552,208.611113 C473.158066,212.565805 468.755335,213.057864 468.755335,213.057864 C468.755335,213.057864 472.854849,206.970918 469.289,205.652688 C466.268943,204.534926 463.885646,201.837716 460.501728,200.865749 C450.313587,197.931623 439.979904,197.427414 429.803892,200.015277 C418.311911,202.943329 410.92551,197.488161 404.836884,189.032046 C394.763966,175.035715 398.396522,174.653004 380.50057,182.926875 C369.196586,188.157274 357.037524,191.061027 345.35755,195.301236 C342.210143,196.443297 339.741944,197.804051 340.202836,201.582574 C341.858409,215.123294 333.034751,223.16025 324.544634,231.209355 C315.793749,239.501452 306.763903,247.477659 299.723172,257.416025 C296.308931,262.239413 296.096679,266.485694 299.892973,271.217961 C304.465508,276.934343 308.722695,282.918018 312.967754,288.895617 C316.048453,293.233022 315.939295,299.939597 312.828274,304.289151 C309.662673,308.723751 306.527393,313.158352 302.549167,317.003699 C287.139605,331.899099 272.94898,325.866825 259.625563,313.225176 C256.939047,310.679836 256.775309,307.45412 258.412688,301.555493 C261.414551,308.183095 266.266046,309.21581 272.033261,307.915804 C272.548732,307.794309 273.300714,308.602256 273.913216,309.027491 C278.188596,312.004142 284.501605,311.621429 288.479831,308.134496 C292.318577,304.775134 292.694568,300.510628 289.60174,295.025086 C288.582925,293.226948 287.582305,291.392358 286.357302,289.740014 C285.477968,288.561503 283.949747,286.787663 282.706551,287.625985 C276.235868,291.993763 277.582158,285.767097 276.605795,283.16101 C275.471759,280.147911 274.25282,277.244159 272.524475,274.504426 C268.370382,267.919346 268.582635,263.490821 273.34923,257.573968 C281.402711,247.574855 287.133541,236.761719 288.176613,223.549036 C288.752728,216.253206 285.56287,215.451334 285.089849,209.321864 C285.089849,209.321864 284.162,207.092414 281.499741,216.301805 C276.460251,233.760769 262.38485,243.668761 248.473186,253.546379 C241.596192,258.430515 234.064246,262.391283 228.303095,268.86094 C223.882169,273.817974 222.341821,279.874546 221.741447,285.961491 C221.219912,291.295162 221.001595,296.738178 221.292685,302.223719 C221.808156,311.900869 227.00532,317.228467 235.271056,320.824746 C242.445204,323.953265 250.177274,324.566819 257.630385,326.419633 C262.118017,327.53132 266.011343,329.681798 269.516548,332.585551 C270.887095,333.721537 271.645142,335.410331 270.965932,337.159871 C270.177565,339.207078 268.364318,337.755201 267.024092,337.97997 C260.426059,339.073432 253.840153,340.215494 247.248184,341.345406 L246.114147,341.345406 C243.955232,339.717361 241.183815,337.846323 238.909676,338.945862 C232.966595,341.825316 226.799132,340.482785 221.135011,339.735585 C207.205154,337.882773 201.304523,332.591625 201.7169,319.05698 C201.826058,315.47285 201.801801,311.882645 201.704771,308.298515 C201.498583,300.553151 200.958855,300.091467 193.572451,300.60175 C192.850792,300.650347 192.032103,300.553151 191.795592,298.846133 C199.74598,295.881632 198.921226,289.436274 197.53855,282.589978 C195.555502,272.785258 198.59375,264.074 206.677554,258.758554 C214.506655,253.601052 218.678942,246.335596 222.074988,238.450511 C225.792446,229.824301 230.340724,222.030338 237.241975,215.597129 C245.155977,208.222327 244.59199,203.155946 235.343827,197.372741 C230.340724,194.244222 226.077471,190.483923 222.566202,185.624085 C215.113091,175.321232 204.445867,169.10064 192.814406,165.079125 C172.559413,158.06881 151.212833,156.73843 130.072442,154.636551 C98.6286875,151.514106 67.3062205,148.434184 37.8455147,135.355148 C8.05733309,122.130317 1.85348337,102.575549 0.707317584,96.6404734 C-0.9907058,87.8623932 0.495064661,78.2277666 3.81227463,70.1361383 C9.70077716,55.7692459 17.7481952,47.7079915 29.834483,38.0490659 C41.2597547,28.9247222 53.2732701,20.4321574 66.7058479,14.1568932 C80.7691201,7.58396391 95.0325166,1.86150606 110.642203,0.494676961 C114.935776,0.118039609 119.399152,-0.683833464 123.89285,1.20542809 C122.146311,3.58674812 119.914624,4.26712528 117.749644,4.62553825 C105.578455,6.65452011 94.3229855,11.1620188 83.164546,16.3255953 C62.7215573,25.7779779 44.5041921,38.194861 29.4948784,55.046345 C21.7688719,63.7272285 17.5965859,71.8067072 16.1168798,83.4642407 C14.9343278,92.7829779 19.8464668,100.996102 25.5894245,106.117155 C37.554425,116.790572 64.3225509,124.669582 104.965953,122.907891 C113.735031,122.531254 122.667847,122.555553 131.394475,122.002747 C145.04537,121.140126 158.629557,118.540113 172.122778,116.031222 C186.853131,113.291489 201.48039,109.956426 216.09552,106.627438 C224.712988,104.659204 233.269813,102.362931 241.765995,99.9269379 C253.712802,96.5129026 265.999213,97.7157122 278.115823,96.6708474 C288.540474,95.7717776 298.95906,94.9456052 309.365519,95.5409353 C325.708993,96.4764539 342.010017,98.4325382 358.414137,97.6367399 C377.401677,96.7133708 393.502577,91.3311016 403.150988,72.590356 C411.816972,55.7510215 426.104626,43.6682522 442.648225,34.8840972 C452.357281,29.7326702 462.842574,25.449939 474.504356,29.2284621 C477.676021,30.2551027 479.695456,27.9588298 480.423181,25.3041439 C481.884694,19.8915006 484.625788,20.5354289 488.306861,22.9531979 C490.787189,24.5873179 493.516154,27.2784525 496.372473,26.3247096 C501.624216,24.5751684 506.869896,25.0125537 512.030674,25.298069 C530.320811,26.3247096 538.31365,32.1868877 545.797082,49.0444466 C545.760695,49.4393084 545.760695,49.8159457 545.760695,50.1925831 Z" id="path-3"></path>
        <path d="M545.760695,50.1925831 C545.287674,51.2313732 543.444106,55.1739158 543.286432,54.2323224 C543.007472,52.5313796 541.521701,52.4584819 541.521701,52.4584819 L540.327021,55.5141044 C539.963158,53.8010119 538.416744,53.3089535 538.416744,53.3089535 C538.350036,56.862709 536.645949,61.4977784 536.749043,59.5356193 C537.034067,54.2991451 534.323296,53.588394 534.323296,53.588394 L533.334803,57.6949561 C532.340246,54.4388656 531.000021,53.9407322 531.000021,53.9407322 L528.950264,58.47253 C528.240732,55.854293 527.039988,54.0804526 527.039988,54.0804526 L525.414737,58.2599121 C524.75372,55.7145726 523.577233,53.7281144 523.577233,53.7281144 L521.806436,57.2697205 C521.218194,54.7183061 519.568684,54.5785858 519.568684,54.5785858 C519.568684,54.5785858 518.016206,57.6281334 517.96769,57.0692521 C517.779696,54.5785858 516.839718,54.7486801 516.839718,54.7486801 L515.723874,58.2599121 C515.560137,56.8141108 514.735382,55.289337 514.735382,55.289337 C514.735382,55.289337 513.461865,58.0290699 513.534638,57.7678537 C513.910629,56.2916783 512.261119,55.4290572 512.261119,55.4290572 L511.284756,57.8954244 C510.987602,56.8505595 509.811114,56.0000881 509.811114,56.0000881 L508.119155,58.5029041 C507.082149,56.7108393 505.432639,56.6622408 505.432639,56.6622408 L504.250089,58.8673917 C503.789195,57.5127122 501.763697,57.1360749 501.763697,57.1360749 L500.114189,58.9099153 C500.114189,58.9099153 499.180276,58.9038406 498.713319,58.9281397 C497.203291,59.0071122 495.681135,59.3412259 494.177171,60.3982404 C499.550201,62.7370369 504.923234,62.5365685 510.302328,62.2753523 C511.278693,62.2267539 517.78576,60.2585201 521.509282,61.2547866 C524.262506,61.9959117 522.224878,63.1015245 520.199379,63.2776937 C515.256919,63.7029295 513.728697,66.630981 511.848742,67.6819208 C510.896636,68.2104281 509.8475,68.568841 508.634627,69.0851987 C509.617055,69.6744538 510.520645,69.8870717 511.53946,70.3123075 C511.903322,70.4641774 511.454558,71.5211919 511.818421,71.6609121 C512.194412,71.8006324 513.837856,70.5249254 513.837856,70.5249254 C514.219911,71.0898814 513.765083,72.0618487 514.219911,72.1894195 C514.583774,72.292691 515.705681,72.0800731 516.233282,71.2660504 C516.530436,70.8104407 516.839718,72.6389543 517.367318,72.7543755 C517.816082,72.8515722 519.028956,72.6146551 519.210886,71.9039041 C519.374626,71.2235268 520.181186,73.4772762 520.86646,73.6048469 C521.309158,73.6838192 522.176363,73.5319493 522.631191,72.7543755 C522.788865,72.4931592 522.788865,74.1819525 523.092083,74.2427004 C523.565104,74.3338224 524.505082,74.0665314 524.929587,73.21606 C525.129711,72.8151234 525.451122,74.7104598 525.881693,74.8076564 C526.354714,74.910928 527.440236,74.8441053 528.034544,73.7445672 C528.210411,73.4226031 529.0291,75.4455101 529.380834,75.5487816 C529.920563,75.7006516 530.514871,75.2328922 531.254725,74.3095232 C531.52762,74.4006452 532.097671,75.7310255 532.388762,75.7978483 C533.237773,75.986167 533.310545,76.1866352 534.086785,74.9838256 C534.086785,74.9838256 534.638642,76.3810287 535.111662,76.5450481 C536.561048,77.0371066 537.798179,77.7600074 537.743599,80.1474021 C537.622312,84.8189204 534.129236,87.4979053 529.956949,88.761463 C525.3359,90.1586661 520.484405,89.7516547 516.039222,88.1904321 C509.926337,86.0460292 503.704295,86.1493007 497.597476,86.8479021 C481.332836,88.7128646 465.177357,91.2703536 449.907275,97.6488895 C445.625831,99.4348795 442.005402,102.040967 439.209728,105.716219 C431.859712,115.381219 426.45636,126.133608 421.707959,137.256559 C420.009935,141.229476 418.051144,145.099121 416.201512,149.005215 C414.163883,153.287946 415.291856,160.480505 418.839512,164.076783 C422.229494,167.515119 426.268364,166.069317 429.973693,164.836133 C436.571727,162.637058 443.103053,160.213213 449.585864,157.686098 C455.128698,155.529546 460.974749,154.782346 466.741964,154.624401 C474.413392,154.405708 476.196316,161.786586 479.689392,166.597824 C481.484446,169.070267 481.387416,172.484302 477.627507,175.442727 C477.93679,170.686162 477.051392,169.768868 473.164132,169.610923 C472.048287,171.536634 473.897921,171.560933 473.643217,173.681037 C473.41277,175.667495 469.877244,178.644144 469.877244,178.644144 C469.877244,178.644144 471.096181,175.515625 469.464866,173.523092 C468.324764,172.125888 467.663749,169.501577 466.626741,169.094565 C463.230695,167.739885 463.94629,165.048751 452.64837,169.039892 C442.872607,172.496451 439.197599,173.826831 429.506738,177.775448 C426.492745,179.233399 421.107585,181.620794 421.107585,181.620794 C421.107585,181.620794 423.005733,184.433425 424.62492,185.223148 C435.401304,190.471772 448.221381,189.548404 460.489599,187.489048 C469.101003,186.043246 480.768851,197.633957 481.066005,206.509234 C481.144842,208.677936 480.344344,211.782157 478.082335,213.20366 C478.500776,210.087288 477.779117,209.103172 476.15993,208.477468 C476.068964,208.507842 475.820325,208.501767 475.747552,208.611113 C473.158066,212.565805 468.755335,213.057864 468.755335,213.057864 C468.755335,213.057864 472.854849,206.970918 469.289,205.652688 C466.268943,204.534926 463.885646,201.837716 460.501728,200.865749 C450.313587,197.931623 439.979904,197.427414 429.803892,200.015277 C418.311911,202.943329 410.92551,197.488161 404.836884,189.032046 C394.763966,175.035715 398.396522,174.653004 380.50057,182.926875 C369.196586,188.157274 357.037524,191.061027 345.35755,195.301236 C342.210143,196.443297 339.741944,197.804051 340.202836,201.582574 C341.858409,215.123294 333.034751,223.16025 324.544634,231.209355 C315.793749,239.501452 306.763903,247.477659 299.723172,257.416025 C296.308931,262.239413 296.096679,266.485694 299.892973,271.217961 C304.465508,276.934343 308.722695,282.918018 312.967754,288.895617 C316.048453,293.233022 315.939295,299.939597 312.828274,304.289151 C309.662673,308.723751 306.527393,313.158352 302.549167,317.003699 C287.139605,331.899099 272.94898,325.866825 259.625563,313.225176 C256.939047,310.679836 256.775309,307.45412 258.412688,301.555493 C261.414551,308.183095 266.266046,309.21581 272.033261,307.915804 C272.548732,307.794309 273.300714,308.602256 273.913216,309.027491 C278.188596,312.004142 284.501605,311.621429 288.479831,308.134496 C292.318577,304.775134 292.694568,300.510628 289.60174,295.025086 C288.582925,293.226948 287.582305,291.392358 286.357302,289.740014 C285.477968,288.561503 283.949747,286.787663 282.706551,287.625985 C276.235868,291.993763 277.582158,285.767097 276.605795,283.16101 C275.471759,280.147911 274.25282,277.244159 272.524475,274.504426 C268.370382,267.919346 268.582635,263.490821 273.34923,257.573968 C281.402711,247.574855 287.133541,236.761719 288.176613,223.549036 C288.752728,216.253206 285.56287,215.451334 285.089849,209.321864 C285.089849,209.321864 284.162,207.092414 281.499741,216.301805 C276.460251,233.760769 262.38485,243.668761 248.473186,253.546379 C241.596192,258.430515 234.064246,262.391283 228.303095,268.86094 C223.882169,273.817974 222.341821,279.874546 221.741447,285.961491 C221.219912,291.295162 221.001595,296.738178 221.292685,302.223719 C221.808156,311.900869 227.00532,317.228467 235.271056,320.824746 C242.445204,323.953265 250.177274,324.566819 257.630385,326.419633 C262.118017,327.53132 266.011343,329.681798 269.516548,332.585551 C270.887095,333.721537 271.645142,335.410331 270.965932,337.159871 C270.177565,339.207078 268.364318,337.755201 267.024092,337.97997 C260.426059,339.073432 253.840153,340.215494 247.248184,341.345406 L246.114147,341.345406 C243.955232,339.717361 241.183815,337.846323 238.909676,338.945862 C232.966595,341.825316 226.799132,340.482785 221.135011,339.735585 C207.205154,337.882773 201.304523,332.591625 201.7169,319.05698 C201.826058,315.47285 201.801801,311.882645 201.704771,308.298515 C201.498583,300.553151 200.958855,300.091467 193.572451,300.60175 C192.850792,300.650347 192.032103,300.553151 191.795592,298.846133 C199.74598,295.881632 198.921226,289.436274 197.53855,282.589978 C195.555502,272.785258 198.59375,264.074 206.677554,258.758554 C214.506655,253.601052 218.678942,246.335596 222.074988,238.450511 C225.792446,229.824301 230.340724,222.030338 237.241975,215.597129 C245.155977,208.222327 244.59199,203.155946 235.343827,197.372741 C230.340724,194.244222 226.077471,190.483923 222.566202,185.624085 C215.113091,175.321232 204.445867,169.10064 192.814406,165.079125 C172.559413,158.06881 151.212833,156.73843 130.072442,154.636551 C98.6286875,151.514106 67.3062205,148.434184 37.8455147,135.355148 C8.05733309,122.130317 1.85348337,102.575549 0.707317584,96.6404734 C-0.9907058,87.8623932 0.495064661,78.2277666 3.81227463,70.1361383 C9.70077716,55.7692459 17.7481952,47.7079915 29.834483,38.0490659 C41.2597547,28.9247222 53.2732701,20.4321574 66.7058479,14.1568932 C80.7691201,7.58396391 95.0325166,1.86150606 110.642203,0.494676961 C114.935776,0.118039609 119.399152,-0.683833464 123.89285,1.20542809 C122.146311,3.58674812 119.914624,4.26712528 117.749644,4.62553825 C105.578455,6.65452011 94.3229855,11.1620188 83.164546,16.3255953 C62.7215573,25.7779779 44.5041921,38.194861 29.4948784,55.046345 C21.7688719,63.7272285 17.5965859,71.8067072 16.1168798,83.4642407 C14.9343278,92.7829779 19.8464668,100.996102 25.5894245,106.117155 C37.554425,116.790572 64.3225509,124.669582 104.965953,122.907891 C113.735031,122.531254 122.667847,122.555553 131.394475,122.002747 C145.04537,121.140126 158.629557,118.540113 172.122778,116.031222 C186.853131,113.291489 201.48039,109.956426 216.09552,106.627438 C224.712988,104.659204 233.269813,102.362931 241.765995,99.9269379 C253.712802,96.5129026 265.999213,97.7157122 278.115823,96.6708474 C288.540474,95.7717776 298.95906,94.9456052 309.365519,95.5409353 C325.708993,96.4764539 342.010017,98.4325382 358.414137,97.6367399 C377.401677,96.7133708 393.502577,91.3311016 403.150988,72.590356 C411.816972,55.7510215 426.104626,43.6682522 442.648225,34.8840972 C452.357281,29.7326702 462.842574,25.449939 474.504356,29.2284621 C477.676021,30.2551027 479.695456,27.9588298 480.423181,25.3041439 C481.884694,19.8915006 484.625788,20.5354289 488.306861,22.9531979 C490.787189,24.5873179 493.516154,27.2784525 496.372473,26.3247096 C501.624216,24.5751684 506.869896,25.0125537 512.030674,25.298069 C530.320811,26.3247096 538.31365,32.1868877 545.797082,49.0444466 C545.760695,49.4393084 545.760695,49.8159457 545.760695,50.1925831 Z" id="path-5"></path>
        <path d="M545.760695,50.1925831 C545.287674,51.2313732 543.444106,55.1739158 543.286432,54.2323224 C543.007472,52.5313796 541.521701,52.4584819 541.521701,52.4584819 L540.327021,55.5141044 C539.963158,53.8010119 538.416744,53.3089535 538.416744,53.3089535 C538.350036,56.862709 536.645949,61.4977784 536.749043,59.5356193 C537.034067,54.2991451 534.323296,53.588394 534.323296,53.588394 L533.334803,57.6949561 C532.340246,54.4388656 531.000021,53.9407322 531.000021,53.9407322 L528.950264,58.47253 C528.240732,55.854293 527.039988,54.0804526 527.039988,54.0804526 L525.414737,58.2599121 C524.75372,55.7145726 523.577233,53.7281144 523.577233,53.7281144 L521.806436,57.2697205 C521.218194,54.7183061 519.568684,54.5785858 519.568684,54.5785858 C519.568684,54.5785858 518.016206,57.6281334 517.96769,57.0692521 C517.779696,54.5785858 516.839718,54.7486801 516.839718,54.7486801 L515.723874,58.2599121 C515.560137,56.8141108 514.735382,55.289337 514.735382,55.289337 C514.735382,55.289337 513.461865,58.0290699 513.534638,57.7678537 C513.910629,56.2916783 512.261119,55.4290572 512.261119,55.4290572 L511.284756,57.8954244 C510.987602,56.8505595 509.811114,56.0000881 509.811114,56.0000881 L508.119155,58.5029041 C507.082149,56.7108393 505.432639,56.6622408 505.432639,56.6622408 L504.250089,58.8673917 C503.789195,57.5127122 501.763697,57.1360749 501.763697,57.1360749 L500.114189,58.9099153 C500.114189,58.9099153 499.180276,58.9038406 498.713319,58.9281397 C497.203291,59.0071122 495.681135,59.3412259 494.177171,60.3982404 C499.550201,62.7370369 504.923234,62.5365685 510.302328,62.2753523 C511.278693,62.2267539 517.78576,60.2585201 521.509282,61.2547866 C524.262506,61.9959117 522.224878,63.1015245 520.199379,63.2776937 C515.256919,63.7029295 513.728697,66.630981 511.848742,67.6819208 C510.896636,68.2104281 509.8475,68.568841 508.634627,69.0851987 C509.617055,69.6744538 510.520645,69.8870717 511.53946,70.3123075 C511.903322,70.4641774 511.454558,71.5211919 511.818421,71.6609121 C512.194412,71.8006324 513.837856,70.5249254 513.837856,70.5249254 C514.219911,71.0898814 513.765083,72.0618487 514.219911,72.1894195 C514.583774,72.292691 515.705681,72.0800731 516.233282,71.2660504 C516.530436,70.8104407 516.839718,72.6389543 517.367318,72.7543755 C517.816082,72.8515722 519.028956,72.6146551 519.210886,71.9039041 C519.374626,71.2235268 520.181186,73.4772762 520.86646,73.6048469 C521.309158,73.6838192 522.176363,73.5319493 522.631191,72.7543755 C522.788865,72.4931592 522.788865,74.1819525 523.092083,74.2427004 C523.565104,74.3338224 524.505082,74.0665314 524.929587,73.21606 C525.129711,72.8151234 525.451122,74.7104598 525.881693,74.8076564 C526.354714,74.910928 527.440236,74.8441053 528.034544,73.7445672 C528.210411,73.4226031 529.0291,75.4455101 529.380834,75.5487816 C529.920563,75.7006516 530.514871,75.2328922 531.254725,74.3095232 C531.52762,74.4006452 532.097671,75.7310255 532.388762,75.7978483 C533.237773,75.986167 533.310545,76.1866352 534.086785,74.9838256 C534.086785,74.9838256 534.638642,76.3810287 535.111662,76.5450481 C536.561048,77.0371066 537.798179,77.7600074 537.743599,80.1474021 C537.622312,84.8189204 534.129236,87.4979053 529.956949,88.761463 C525.3359,90.1586661 520.484405,89.7516547 516.039222,88.1904321 C509.926337,86.0460292 503.704295,86.1493007 497.597476,86.8479021 C481.332836,88.7128646 465.177357,91.2703536 449.907275,97.6488895 C445.625831,99.4348795 442.005402,102.040967 439.209728,105.716219 C431.859712,115.381219 426.45636,126.133608 421.707959,137.256559 C420.009935,141.229476 418.051144,145.099121 416.201512,149.005215 C414.163883,153.287946 415.291856,160.480505 418.839512,164.076783 C422.229494,167.515119 426.268364,166.069317 429.973693,164.836133 C436.571727,162.637058 443.103053,160.213213 449.585864,157.686098 C455.128698,155.529546 460.974749,154.782346 466.741964,154.624401 C474.413392,154.405708 476.196316,161.786586 479.689392,166.597824 C481.484446,169.070267 481.387416,172.484302 477.627507,175.442727 C477.93679,170.686162 477.051392,169.768868 473.164132,169.610923 C472.048287,171.536634 473.897921,171.560933 473.643217,173.681037 C473.41277,175.667495 469.877244,178.644144 469.877244,178.644144 C469.877244,178.644144 471.096181,175.515625 469.464866,173.523092 C468.324764,172.125888 467.663749,169.501577 466.626741,169.094565 C463.230695,167.739885 463.94629,165.048751 452.64837,169.039892 C442.872607,172.496451 439.197599,173.826831 429.506738,177.775448 C426.492745,179.233399 421.107585,181.620794 421.107585,181.620794 C421.107585,181.620794 423.005733,184.433425 424.62492,185.223148 C435.401304,190.471772 448.221381,189.548404 460.489599,187.489048 C469.101003,186.043246 480.768851,197.633957 481.066005,206.509234 C481.144842,208.677936 480.344344,211.782157 478.082335,213.20366 C478.500776,210.087288 477.779117,209.103172 476.15993,208.477468 C476.068964,208.507842 475.820325,208.501767 475.747552,208.611113 C473.158066,212.565805 468.755335,213.057864 468.755335,213.057864 C468.755335,213.057864 472.854849,206.970918 469.289,205.652688 C466.268943,204.534926 463.885646,201.837716 460.501728,200.865749 C450.313587,197.931623 439.979904,197.427414 429.803892,200.015277 C418.311911,202.943329 410.92551,197.488161 404.836884,189.032046 C394.763966,175.035715 398.396522,174.653004 380.50057,182.926875 C369.196586,188.157274 357.037524,191.061027 345.35755,195.301236 C342.210143,196.443297 339.741944,197.804051 340.202836,201.582574 C341.858409,215.123294 333.034751,223.16025 324.544634,231.209355 C315.793749,239.501452 306.763903,247.477659 299.723172,257.416025 C296.308931,262.239413 296.096679,266.485694 299.892973,271.217961 C304.465508,276.934343 308.722695,282.918018 312.967754,288.895617 C316.048453,293.233022 315.939295,299.939597 312.828274,304.289151 C309.662673,308.723751 306.527393,313.158352 302.549167,317.003699 C287.139605,331.899099 272.94898,325.866825 259.625563,313.225176 C256.939047,310.679836 256.775309,307.45412 258.412688,301.555493 C261.414551,308.183095 266.266046,309.21581 272.033261,307.915804 C272.548732,307.794309 273.300714,308.602256 273.913216,309.027491 C278.188596,312.004142 284.501605,311.621429 288.479831,308.134496 C292.318577,304.775134 292.694568,300.510628 289.60174,295.025086 C288.582925,293.226948 287.582305,291.392358 286.357302,289.740014 C285.477968,288.561503 283.949747,286.787663 282.706551,287.625985 C276.235868,291.993763 277.582158,285.767097 276.605795,283.16101 C275.471759,280.147911 274.25282,277.244159 272.524475,274.504426 C268.370382,267.919346 268.582635,263.490821 273.34923,257.573968 C281.402711,247.574855 287.133541,236.761719 288.176613,223.549036 C288.752728,216.253206 285.56287,215.451334 285.089849,209.321864 C285.089849,209.321864 284.162,207.092414 281.499741,216.301805 C276.460251,233.760769 262.38485,243.668761 248.473186,253.546379 C241.596192,258.430515 234.064246,262.391283 228.303095,268.86094 C223.882169,273.817974 222.341821,279.874546 221.741447,285.961491 C221.219912,291.295162 221.001595,296.738178 221.292685,302.223719 C221.808156,311.900869 227.00532,317.228467 235.271056,320.824746 C242.445204,323.953265 250.177274,324.566819 257.630385,326.419633 C262.118017,327.53132 266.011343,329.681798 269.516548,332.585551 C270.887095,333.721537 271.645142,335.410331 270.965932,337.159871 C270.177565,339.207078 268.364318,337.755201 267.024092,337.97997 C260.426059,339.073432 253.840153,340.215494 247.248184,341.345406 L246.114147,341.345406 C243.955232,339.717361 241.183815,337.846323 238.909676,338.945862 C232.966595,341.825316 226.799132,340.482785 221.135011,339.735585 C207.205154,337.882773 201.304523,332.591625 201.7169,319.05698 C201.826058,315.47285 201.801801,311.882645 201.704771,308.298515 C201.498583,300.553151 200.958855,300.091467 193.572451,300.60175 C192.850792,300.650347 192.032103,300.553151 191.795592,298.846133 C199.74598,295.881632 198.921226,289.436274 197.53855,282.589978 C195.555502,272.785258 198.59375,264.074 206.677554,258.758554 C214.506655,253.601052 218.678942,246.335596 222.074988,238.450511 C225.792446,229.824301 230.340724,222.030338 237.241975,215.597129 C245.155977,208.222327 244.59199,203.155946 235.343827,197.372741 C230.340724,194.244222 226.077471,190.483923 222.566202,185.624085 C215.113091,175.321232 204.445867,169.10064 192.814406,165.079125 C172.559413,158.06881 151.212833,156.73843 130.072442,154.636551 C98.6286875,151.514106 67.3062205,148.434184 37.8455147,135.355148 C8.05733309,122.130317 1.85348337,102.575549 0.707317584,96.6404734 C-0.9907058,87.8623932 0.495064661,78.2277666 3.81227463,70.1361383 C9.70077716,55.7692459 17.7481952,47.7079915 29.834483,38.0490659 C41.2597547,28.9247222 53.2732701,20.4321574 66.7058479,14.1568932 C80.7691201,7.58396391 95.0325166,1.86150606 110.642203,0.494676961 C114.935776,0.118039609 119.399152,-0.683833464 123.89285,1.20542809 C122.146311,3.58674812 119.914624,4.26712528 117.749644,4.62553825 C105.578455,6.65452011 94.3229855,11.1620188 83.164546,16.3255953 C62.7215573,25.7779779 44.5041921,38.194861 29.4948784,55.046345 C21.7688719,63.7272285 17.5965859,71.8067072 16.1168798,83.4642407 C14.9343278,92.7829779 19.8464668,100.996102 25.5894245,106.117155 C37.554425,116.790572 64.3225509,124.669582 104.965953,122.907891 C113.735031,122.531254 122.667847,122.555553 131.394475,122.002747 C145.04537,121.140126 158.629557,118.540113 172.122778,116.031222 C186.853131,113.291489 201.48039,109.956426 216.09552,106.627438 C224.712988,104.659204 233.269813,102.362931 241.765995,99.9269379 C253.712802,96.5129026 265.999213,97.7157122 278.115823,96.6708474 C288.540474,95.7717776 298.95906,94.9456052 309.365519,95.5409353 C325.708993,96.4764539 342.010017,98.4325382 358.414137,97.6367399 C377.401677,96.7133708 393.502577,91.3311016 403.150988,72.590356 C411.816972,55.7510215 426.104626,43.6682522 442.648225,34.8840972 C452.357281,29.7326702 462.842574,25.449939 474.504356,29.2284621 C477.676021,30.2551027 479.695456,27.9588298 480.423181,25.3041439 C481.884694,19.8915006 484.625788,20.5354289 488.306861,22.9531979 C490.787189,24.5873179 493.516154,27.2784525 496.372473,26.3247096 C501.624216,24.5751684 506.869896,25.0125537 512.030674,25.298069 C530.320811,26.3247096 538.31365,32.1868877 545.797082,49.0444466 C545.760695,49.4393084 545.760695,49.8159457 545.760695,50.1925831 Z" id="path-7"></path>
        <path d="M545.760695,50.1925831 C545.287674,51.2313732 543.444106,55.1739158 543.286432,54.2323224 C543.007472,52.5313796 541.521701,52.4584819 541.521701,52.4584819 L540.327021,55.5141044 C539.963158,53.8010119 538.416744,53.3089535 538.416744,53.3089535 C538.350036,56.862709 536.645949,61.4977784 536.749043,59.5356193 C537.034067,54.2991451 534.323296,53.588394 534.323296,53.588394 L533.334803,57.6949561 C532.340246,54.4388656 531.000021,53.9407322 531.000021,53.9407322 L528.950264,58.47253 C528.240732,55.854293 527.039988,54.0804526 527.039988,54.0804526 L525.414737,58.2599121 C524.75372,55.7145726 523.577233,53.7281144 523.577233,53.7281144 L521.806436,57.2697205 C521.218194,54.7183061 519.568684,54.5785858 519.568684,54.5785858 C519.568684,54.5785858 518.016206,57.6281334 517.96769,57.0692521 C517.779696,54.5785858 516.839718,54.7486801 516.839718,54.7486801 L515.723874,58.2599121 C515.560137,56.8141108 514.735382,55.289337 514.735382,55.289337 C514.735382,55.289337 513.461865,58.0290699 513.534638,57.7678537 C513.910629,56.2916783 512.261119,55.4290572 512.261119,55.4290572 L511.284756,57.8954244 C510.987602,56.8505595 509.811114,56.0000881 509.811114,56.0000881 L508.119155,58.5029041 C507.082149,56.7108393 505.432639,56.6622408 505.432639,56.6622408 L504.250089,58.8673917 C503.789195,57.5127122 501.763697,57.1360749 501.763697,57.1360749 L500.114189,58.9099153 C497.203291,59.0071122 495.681135,59.3412259 494.177171,60.3982404 C499.550201,62.7370369 504.923234,62.5365685 510.302328,62.2753523 C511.278693,62.2267539 517.78576,60.2585201 521.509282,61.2547866 C524.262506,61.9959117 522.224878,63.1015245 520.199379,63.2776937 C515.256919,63.7029295 513.728697,66.630981 511.848742,67.6819208 C510.896636,68.2104281 509.8475,68.568841 508.634627,69.0851987 C509.617055,69.6744538 510.520645,69.8870717 511.53946,70.3123075 C511.903322,70.4641774 511.454558,71.5211919 511.818421,71.6609121 C512.194412,71.8006324 513.837856,70.5249254 513.837856,70.5249254 C514.219911,71.0898814 513.765083,72.0618487 514.219911,72.1894195 C514.583774,72.292691 515.705681,72.0800731 516.233282,71.2660504 C516.530436,70.8104407 516.839718,72.6389543 517.367318,72.7543755 C517.816082,72.8515722 519.028956,72.6146551 519.210886,71.9039041 C519.374626,71.2235268 520.181186,73.4772762 520.86646,73.6048469 C521.309158,73.6838192 522.176363,73.5319493 522.631191,72.7543755 C522.788865,72.4931592 522.788865,74.1819525 523.092083,74.2427004 C523.565104,74.3338224 524.505082,74.0665314 524.929587,73.21606 C525.129711,72.8151234 525.451122,74.7104598 525.881693,74.8076564 C526.354714,74.910928 527.440236,74.8441053 528.034544,73.7445672 C528.210411,73.4226031 529.0291,75.4455101 529.380834,75.5487816 C529.920563,75.7006516 530.514871,75.2328922 531.254725,74.3095232 C531.52762,74.4006452 532.097671,75.7310255 532.388762,75.7978483 C533.237773,75.986167 533.310545,76.1866352 534.086785,74.9838256 C534.086785,74.9838256 534.638642,76.3810287 535.111662,76.5450481 C536.561048,77.0371066 537.798179,77.7600074 537.743599,80.1474021 C537.622312,84.8189204 534.129236,87.4979053 529.956949,88.761463 C525.3359,90.1586661 520.484405,89.7516547 516.039222,88.1904321 C509.926337,86.0460292 503.704295,86.1493007 497.597476,86.8479021 C481.332836,88.7128646 465.177357,91.2703536 449.907275,97.6488895 C445.625831,99.4348795 442.005402,102.040967 439.209728,105.716219 C431.859712,115.381219 426.45636,126.133608 421.707959,137.256559 C420.009935,141.229476 418.051144,145.099121 416.201512,149.005215 C414.163883,153.287946 415.291856,160.480505 418.839512,164.076783 C422.229494,167.515119 426.268364,166.069317 429.973693,164.836133 C436.571727,162.637058 443.103053,160.213213 449.585864,157.686098 C455.128698,155.529546 460.974749,154.782346 466.741964,154.624401 C474.413392,154.405708 476.196316,161.786586 479.689392,166.597824 C481.484446,169.070267 481.387416,172.484302 477.627507,175.442727 C477.93679,170.686162 477.051392,169.768868 473.164132,169.610923 C472.048287,171.536634 473.897921,171.560933 473.643217,173.681037 C473.41277,175.667495 469.877244,178.644144 469.877244,178.644144 C469.877244,178.644144 471.096181,175.515625 469.464866,173.523092 C468.324764,172.125888 467.663749,169.501577 466.626741,169.094565 C463.230695,167.739885 463.94629,165.048751 452.64837,169.039892 C442.872607,172.496451 439.197599,173.826831 429.506738,177.775448 C426.492745,179.233399 421.107585,181.620794 421.107585,181.620794 C421.107585,181.620794 423.005733,184.433425 424.62492,185.223148 C435.401304,190.471772 448.221381,189.548404 460.489599,187.489048 C469.101003,186.043246 480.768851,197.633957 481.066005,206.509234 C481.144842,208.677936 480.344344,211.782157 478.082335,213.20366 C478.500776,210.087288 477.779117,209.103172 476.15993,208.477468 C473.158066,212.565805 468.755335,213.057864 468.755335,213.057864 C468.755335,213.057864 472.854849,206.970918 469.289,205.652688 C466.268943,204.534926 463.885646,201.837716 460.501728,200.865749 C450.313587,197.931623 439.979904,197.427414 429.803892,200.015277 C418.311911,202.943329 410.92551,197.488161 404.836884,189.032046 C394.763966,175.035715 398.396522,174.653004 380.50057,182.926875 C369.196586,188.157274 357.037524,191.061027 345.35755,195.301236 C342.210143,196.443297 339.741944,197.804051 340.202836,201.582574 C341.858409,215.123294 333.034751,223.16025 324.544634,231.209355 C315.793749,239.501452 306.763903,247.477659 299.723172,257.416025 C296.308931,262.239413 296.096679,266.485694 299.892973,271.217961 C304.465508,276.934343 308.722695,282.918018 312.967754,288.895617 C316.048453,293.233022 315.939295,299.939597 312.828274,304.289151 C309.662673,308.723751 306.527393,313.158352 302.549167,317.003699 C287.139605,331.899099 272.94898,325.866825 259.625563,313.225176 C256.939047,310.679836 256.775309,307.45412 258.412688,301.555493 C261.414551,308.183095 266.266046,309.21581 272.033261,307.915804 C272.548732,307.794309 273.300714,308.602256 273.913216,309.027491 C278.188596,312.004142 284.501605,311.621429 288.479831,308.134496 C292.318577,304.775134 292.694568,300.510628 289.60174,295.025086 C288.582925,293.226948 287.582305,291.392358 286.357302,289.740014 C285.477968,288.561503 283.949747,286.787663 282.706551,287.625985 C276.235868,291.993763 277.582158,285.767097 276.605795,283.16101 C275.471759,280.147911 274.25282,277.244159 272.524475,274.504426 C268.370382,267.919346 268.582635,263.490821 273.34923,257.573968 C281.402711,247.574855 287.133541,236.761719 288.176613,223.549036 C288.752728,216.253206 285.56287,215.451334 285.089849,209.321864 C285.089849,209.321864 284.162,207.092414 281.499741,216.301805 C276.460251,233.760769 262.38485,243.668761 248.473186,253.546379 C241.596192,258.430515 234.064246,262.391283 228.303095,268.86094 C223.882169,273.817974 222.341821,279.874546 221.741447,285.961491 C221.219912,291.295162 221.001595,296.738178 221.292685,302.223719 C221.808156,311.900869 227.00532,317.228467 235.271056,320.824746 C242.445204,323.953265 250.177274,324.566819 257.630385,326.419633 C262.118017,327.53132 266.011343,329.681798 269.516548,332.585551 C270.887095,333.721537 271.645142,335.410331 270.965932,337.159871 C270.177565,339.207078 268.364318,337.755201 267.024092,337.97997 C260.426059,339.073432 253.840153,340.215494 247.248184,341.345406 C243.955232,339.717361 241.183815,337.846323 238.909676,338.945862 C232.966595,341.825316 226.799132,340.482785 221.135011,339.735585 C207.205154,337.882773 201.304523,332.591625 201.7169,319.05698 C201.826058,315.47285 201.801801,311.882645 201.704771,308.298515 C201.498583,300.553151 200.958855,300.091467 193.572451,300.60175 C192.850792,300.650347 192.032103,300.553151 191.795592,298.846133 C199.74598,295.881632 198.921226,289.436274 197.53855,282.589978 C195.555502,272.785258 198.59375,264.074 206.677554,258.758554 C214.506655,253.601052 218.678942,246.335596 222.074988,238.450511 C225.792446,229.824301 230.340724,222.030338 237.241975,215.597129 C245.155977,208.222327 244.59199,203.155946 235.343827,197.372741 C230.340724,194.244222 226.077471,190.483923 222.566202,185.624085 C215.113091,175.321232 204.445867,169.10064 192.814406,165.079125 C172.559413,158.06881 151.212833,156.73843 130.072442,154.636551 C98.6286875,151.514106 67.3062205,148.434184 37.8455147,135.355148 C8.05733309,122.130317 1.85348337,102.575549 0.707317584,96.6404734 C-0.9907058,87.8623932 0.495064661,78.2277666 3.81227463,70.1361383 C9.70077716,55.7692459 17.7481952,47.7079915 29.834483,38.0490659 C41.2597547,28.9247222 53.2732701,20.4321574 66.7058479,14.1568932 C80.7691201,7.58396391 95.0325166,1.86150606 110.642203,0.494676961 C114.935776,0.118039609 119.399152,-0.683833464 123.89285,1.20542809 C122.146311,3.58674812 119.914624,4.26712528 117.749644,4.62553825 C105.578455,6.65452011 94.3229855,11.1620188 83.164546,16.3255953 C62.7215573,25.7779779 44.5041921,38.194861 29.4948784,55.046345 C21.7688719,63.7272285 17.5965859,71.8067072 16.1168798,83.4642407 C14.9343278,92.7829779 19.8464668,100.996102 25.5894245,106.117155 C37.554425,116.790572 64.3225509,124.669582 104.965953,122.907891 C113.735031,122.531254 122.667847,122.555553 131.394475,122.002747 C145.04537,121.140126 158.629557,118.540113 172.122778,116.031222 C186.853131,113.291489 201.48039,109.956426 216.09552,106.627438 C224.712988,104.659204 233.269813,102.362931 241.765995,99.9269379 C253.712802,96.5129026 265.999213,97.7157122 278.115823,96.6708474 C288.540474,95.7717776 298.95906,94.9456052 309.365519,95.5409353 C325.708993,96.4764539 342.010017,98.4325382 358.414137,97.6367399 C377.401677,96.7133708 393.502577,91.3311016 403.150988,72.590356 C411.816972,55.7510215 426.104626,43.6682522 442.648225,34.8840972 C452.357281,29.7326702 462.842574,25.449939 474.504356,29.2284621 C477.676021,30.2551027 479.695456,27.9588298 480.423181,25.3041439 C481.884694,19.8915006 484.625788,20.5354289 488.306861,22.9531979 C490.787189,24.5873179 493.516154,27.2784525 496.372473,26.3247096 C501.624216,24.5751684 506.869896,25.0125537 512.030674,25.298069 C530.320811,26.3247096 538.31365,32.1868877 545.797082,49.0444466 C545.760695,49.4393084 545.760695,49.8159457 545.760695,50.1925831 Z" id="path-9"></path>
    </defs>
    <g id="Page-1" stroke="none" stroke-width="1" fill="none" fill-rule="evenodd">
        <g id="site" transform="translate(-445.000000, -374.000000)">
            <g id="dinosaur" transform="translate(719.942782, 542.738463) rotate(-1.000000) translate(-719.942782, -542.738463) translate(446.942782, 371.738463)">
                <g id="Mask" transform="translate(0.000000, 0.000000)" fill="url(#linearGradient-2)">
                    <path d="M545.760695,50.1925831 C545.287674,51.2313732 543.444106,55.1739158 543.286432,54.2323224 C543.007472,52.5313796 541.521701,52.4584819 541.521701,52.4584819 L540.327021,55.5141044 C539.963158,53.8010119 538.416744,53.3089535 538.416744,53.3089535 C538.350036,56.862709 536.645949,61.4977784 536.749043,59.5356193 C537.034067,54.2991451 534.323296,53.588394 534.323296,53.588394 L533.334803,57.6949561 C532.340246,54.4388656 531.000021,53.9407322 531.000021,53.9407322 L528.950264,58.47253 C528.240732,55.854293 527.039988,54.0804526 527.039988,54.0804526 L525.414737,58.2599121 C524.75372,55.7145726 523.577233,53.7281144 523.577233,53.7281144 L521.806436,57.2697205 C521.218194,54.7183061 519.568684,54.5785858 519.568684,54.5785858 C519.568684,54.5785858 518.016206,57.6281334 517.96769,57.0692521 C517.779696,54.5785858 516.839718,54.7486801 516.839718,54.7486801 L515.723874,58.2599121 C515.560137,56.8141108 514.735382,55.289337 514.735382,55.289337 C514.735382,55.289337 513.461865,58.0290699 513.534638,57.7678537 C513.910629,56.2916783 512.261119,55.4290572 512.261119,55.4290572 L511.284756,57.8954244 C510.987602,56.8505595 509.811114,56.0000881 509.811114,56.0000881 L508.119155,58.5029041 C507.082149,56.7108393 505.432639,56.6622408 505.432639,56.6622408 L504.250089,58.8673917 C503.789195,57.5127122 501.763697,57.1360749 501.763697,57.1360749 L500.114189,58.9099153 C500.114189,58.9099153 499.180276,58.9038406 498.713319,58.9281397 C497.203291,59.0071122 495.681135,59.3412259 494.177171,60.3982404 C499.550201,62.7370369 504.923234,62.5365685 510.302328,62.2753523 C511.278693,62.2267539 517.78576,60.2585201 521.509282,61.2547866 C524.262506,61.9959117 522.224878,63.1015245 520.199379,63.2776937 C515.256919,63.7029295 513.728697,66.630981 511.848742,67.6819208 C510.896636,68.2104281 509.8475,68.568841 508.634627,69.0851987 C509.617055,69.6744538 510.520645,69.8870717 511.53946,70.3123075 C511.903322,70.4641774 511.454558,71.5211919 511.818421,71.6609121 C512.194412,71.8006324 513.837856,70.5249254 513.837856,70.5249254 C514.219911,71.0898814 513.765083,72.0618487 514.219911,72.1894195 C514.583774,72.292691 515.705681,72.0800731 516.233282,71.2660504 C516.530436,70.8104407 516.839718,72.6389543 517.367318,72.7543755 C517.816082,72.8515722 519.028956,72.6146551 519.210886,71.9039041 C519.374626,71.2235268 520.181186,73.4772762 520.86646,73.6048469 C521.309158,73.6838192 522.176363,73.5319493 522.631191,72.7543755 C522.788865,72.4931592 522.788865,74.1819525 523.092083,74.2427004 C523.565104,74.3338224 524.505082,74.0665314 524.929587,73.21606 C525.129711,72.8151234 525.451122,74.7104598 525.881693,74.8076564 C526.354714,74.910928 527.440236,74.8441053 528.034544,73.7445672 C528.210411,73.4226031 529.0291,75.4455101 529.380834,75.5487816 C529.920563,75.7006516 530.514871,75.2328922 531.254725,74.3095232 C531.52762,74.4006452 532.097671,75.7310255 532.388762,75.7978483 C533.237773,75.986167 533.310545,76.1866352 534.086785,74.9838256 C534.086785,74.9838256 534.638642,76.3810287 535.111662,76.5450481 C536.561048,77.0371066 537.798179,77.7600074 537.743599,80.1474021 C537.622312,84.8189204 534.129236,87.4979053 529.956949,88.761463 C525.3359,90.1586661 520.484405,89.7516547 516.039222,88.1904321 C509.926337,86.0460292 503.704295,86.1493007 497.597476,86.8479021 C481.332836,88.7128646 465.177357,91.2703536 449.907275,97.6488895 C445.625831,99.4348795 442.005402,102.040967 439.209728,105.716219 C431.859712,115.381219 426.45636,126.133608 421.707959,137.256559 C420.009935,141.229476 418.051144,145.099121 416.201512,149.005215 C414.163883,153.287946 415.291856,160.480505 418.839512,164.076783 C422.229494,167.515119 426.268364,166.069317 429.973693,164.836133 C436.571727,162.637058 443.103053,160.213213 449.585864,157.686098 C455.128698,155.529546 460.974749,154.782346 466.741964,154.624401 C474.413392,154.405708 476.196316,161.786586 479.689392,166.597824 C481.484446,169.070267 481.387416,172.484302 477.627507,175.442727 C477.93679,170.686162 477.051392,169.768868 473.164132,169.610923 C472.048287,171.536634 473.897921,171.560933 473.643217,173.681037 C473.41277,175.667495 469.877244,178.644144 469.877244,178.644144 C469.877244,178.644144 471.096181,175.515625 469.464866,173.523092 C468.324764,172.125888 467.663749,169.501577 466.626741,169.094565 C463.230695,167.739885 463.94629,165.048751 452.64837,169.039892 C442.872607,172.496451 439.197599,173.826831 429.506738,177.775448 C426.492745,179.233399 421.107585,181.620794 421.107585,181.620794 C421.107585,181.620794 423.005733,184.433425 424.62492,185.223148 C435.401304,190.471772 448.221381,189.548404 460.489599,187.489048 C469.101003,186.043246 480.768851,197.633957 481.066005,206.509234 C481.144842,208.677936 480.344344,211.782157 478.082335,213.20366 C478.500776,210.087288 477.779117,209.103172 476.15993,208.477468 C476.068964,208.507842 475.820325,208.501767 475.747552,208.611113 C473.158066,212.565805 468.755335,213.057864 468.755335,213.057864 C468.755335,213.057864 472.854849,206.970918 469.289,205.652688 C466.268943,204.534926 463.885646,201.837716 460.501728,200.865749 C450.313587,197.931623 439.979904,197.427414 429.803892,200.015277 C418.311911,202.943329 410.92551,197.488161 404.836884,189.032046 C394.763966,175.035715 398.396522,174.653004 380.50057,182.926875 C369.196586,188.157274 357.037524,191.061027 345.35755,195.301236 C342.210143,196.443297 339.741944,197.804051 340.202836,201.582574 C341.858409,215.123294 333.034751,223.16025 324.544634,231.209355 C315.793749,239.501452 306.763903,247.477659 299.723172,257.416025 C296.308931,262.239413 296.096679,266.485694 299.892973,271.217961 C304.465508,276.934343 308.722695,282.918018 312.967754,288.895617 C316.048453,293.233022 315.939295,299.939597 312.828274,304.289151 C309.662673,308.723751 306.527393,313.158352 302.549167,317.003699 C287.139605,331.899099 272.94898,325.866825 259.625563,313.225176 C256.939047,310.679836 256.775309,307.45412 258.412688,301.555493 C261.414551,308.183095 266.266046,309.21581 272.033261,307.915804 C272.548732,307.794309 273.300714,308.602256 273.913216,309.027491 C278.188596,312.004142 284.501605,311.621429 288.479831,308.134496 C292.318577,304.775134 292.694568,300.510628 289.60174,295.025086 C288.582925,293.226948 287.582305,291.392358 286.357302,289.740014 C285.477968,288.561503 283.949747,286.787663 282.706551,287.625985 C276.235868,291.993763 277.582158,285.767097 276.605795,283.16101 C275.471759,280.147911 274.25282,277.244159 272.524475,274.504426 C268.370382,267.919346 268.582635,263.490821 273.34923,257.573968 C281.402711,247.574855 287.133541,236.761719 288.176613,223.549036 C288.752728,216.253206 285.56287,215.451334 285.089849,209.321864 C285.089849,209.321864 284.162,207.092414 281.499741,216.301805 C276.460251,233.760769 262.38485,243.668761 248.473186,253.546379 C241.596192,258.430515 234.064246,262.391283 228.303095,268.86094 C223.882169,273.817974 222.341821,279.874546 221.741447,285.961491 C221.219912,291.295162 221.001595,296.738178 221.292685,302.223719 C221.808156,311.900869 227.00532,317.228467 235.271056,320.824746 C242.445204,323.953265 250.177274,324.566819 257.630385,326.419633 C262.118017,327.53132 266.011343,329.681798 269.516548,332.585551 C270.887095,333.721537 271.645142,335.410331 270.965932,337.159871 C270.177565,339.207078 268.364318,337.755201 267.024092,337.97997 C260.426059,339.073432 253.840153,340.215494 247.248184,341.345406 L246.114147,341.345406 C243.955232,339.717361 241.183815,337.846323 238.909676,338.945862 C232.966595,341.825316 226.799132,340.482785 221.135011,339.735585 C207.205154,337.882773 201.304523,332.591625 201.7169,319.05698 C201.826058,315.47285 201.801801,311.882645 201.704771,308.298515 C201.498583,300.553151 200.958855,300.091467 193.572451,300.60175 C192.850792,300.650347 192.032103,300.553151 191.795592,298.846133 C199.74598,295.881632 198.921226,289.436274 197.53855,282.589978 C195.555502,272.785258 198.59375,264.074 206.677554,258.758554 C214.506655,253.601052 218.678942,246.335596 222.074988,238.450511 C225.792446,229.824301 230.340724,222.030338 237.241975,215.597129 C245.155977,208.222327 244.59199,203.155946 235.343827,197.372741 C230.340724,194.244222 226.077471,190.483923 222.566202,185.624085 C215.113091,175.321232 204.445867,169.10064 192.814406,165.079125 C172.559413,158.06881 151.212833,156.73843 130.072442,154.636551 C98.6286875,151.514106 67.3062205,148.434184 37.8455147,135.355148 C8.05733309,122.130317 1.85348337,102.575549 0.707317584,96.6404734 C-0.9907058,87.8623932 0.495064661,78.2277666 3.81227463,70.1361383 C9.70077716,55.7692459 17.7481952,47.7079915 29.834483,38.0490659 C41.2597547,28.9247222 53.2732701,20.4321574 66.7058479,14.1568932 C80.7691201,7.58396391 95.0325166,1.86150606 110.642203,0.494676961 C114.935776,0.118039609 119.399152,-0.683833464 123.89285,1.20542809 C122.146311,3.58674812 119.914624,4.26712528 117.749644,4.62553825 C105.578455,6.65452011 94.3229855,11.1620188 83.164546,16.3255953 C62.7215573,25.7779779 44.5041921,38.194861 29.4948784,55.046345 C21.7688719,63.7272285 17.5965859,71.8067072 16.1168798,83.4642407 C14.9343278,92.7829779 19.8464668,100.996102 25.5894245,106.117155 C37.554425,116.790572 64.3225509,124.669582 104.965953,122.907891 C113.735031,122.531254 122.667847,122.555553 131.394475,122.002747 C145.04537,121.140126 158.629557,118.540113 172.122778,116.031222 C186.853131,113.291489 201.48039,109.956426 216.09552,106.627438 C224.712988,104.659204 233.269813,102.362931 241.765995,99.9269379 C253.712802,96.5129026 265.999213,97.7157122 278.115823,96.6708474 C288.540474,95.7717776 298.95906,94.9456052 309.365519,95.5409353 C325.708993,96.4764539 342.010017,98.4325382 358.414137,97.6367399 C377.401677,96.7133708 393.502577,91.3311016 403.150988,72.590356 C411.816972,55.7510215 426.104626,43.6682522 442.648225,34.8840972 C452.357281,29.7326702 462.842574,25.449939 474.504356,29.2284621 C477.676021,30.2551027 479.695456,27.9588298 480.423181,25.3041439 C481.884694,19.8915006 484.625788,20.5354289 488.306861,22.9531979 C490.787189,24.5873179 493.516154,27.2784525 496.372473,26.3247096 C501.624216,24.5751684 506.869896,25.0125537 512.030674,25.298069 C530.320811,26.3247096 538.31365,32.1868877 545.797082,49.0444466 C545.760695,49.4393084 545.760695,49.8159457 545.760695,50.1925831 Z" id="path-2"></path>
                </g>
                <g id="Rectangle-Clipped" transform="translate(0.000000, 0.000000)">
                    <mask id="mask-4" fill="white">
                        <use xlink:href="#path-3"></use>
                    </mask>
                    <g id="path-2"></g>
                    <rect id="Rectangle" fill="#5FCCD1" opacity="0.800000012" mask="url(#mask-4)" x="373.356844" y="-7.90151403" width="189.842463" height="102.719682"></rect>
                </g>
                <g id="Rectangle-Copy-2-Clipped" transform="translate(0.000000, 0.000000)">
                    <mask id="mask-6" fill="white">
                        <use xlink:href="#path-5"></use>
                    </mask>
                    <g id="path-2"></g>
                    <rect id="Rectangle-Copy-2" fill="#3AC4D2" opacity="0.800000012" mask="url(#mask-6)" x="148.709929" y="238.625724" width="189.842463" height="102.719682"></rect>
                </g>
                <g id="Rectangle-Copy-3-Clipped" transform="translate(0.000000, 0.000000)">
                    <mask id="mask-8" fill="white">
                        <use xlink:href="#path-7"></use>
                    </mask>
                    <g id="path-2"></g>
                    <polygon id="Rectangle-Copy-3" fill="#10C3DB" opacity="0.800000012" mask="url(#mask-8)" points="417.273946 145.608499 514.799424 145.608499 514.799424 230.231702 403.413307 213.421493"></polygon>
                </g>
                <g id="Rectangle-Copy-Clipped" transform="translate(0.000000, 0.000000)">
                    <mask id="mask-10" fill="white">
                        <use xlink:href="#path-9"></use>
                    </mask>
                    <g id="path-2"></g>
                    <rect id="Rectangle-Copy" fill="#01C3E2" opacity="0.800000012" mask="url(#mask-10)" x="-41.1325337" y="-7.90151403" width="189.842463" height="102.719682"></rect>
                </g>
            </g>
        </g>
    </g>
</svg>