<?xml version="1.0" encoding="UTF-8"?>
<svg width="881px" height="336px" viewBox="0 0 881 336" version="1.1" xmlns="http://www.w3.org/2000/svg" xmlns:xlink="http://www.w3.org/1999/xlink">
    <!-- Generator: Sketch 41.2 (35397) - http://www.bohemiancoding.com/sketch -->
    <title>image</title>
    <desc>Created with Sketch.</desc>
    <defs></defs>
    <g id="Page-1" stroke="none" stroke-width="1" fill="none" fill-rule="evenodd">
        <g id="site" transform="translate(-234.000000, -191.000000)">
            <g id="image" transform="translate(233.000000, 185.000000)">
                <g id="dinosaur" transform="translate(226.900418, 143.396819) rotate(-1.000000) translate(-226.900418, -143.396819) translate(2.400418, 3.896819)" fill="#FDD469">
                    <path d="M448.55885,40.9797001 C448.170076,41.8278195 446.654854,45.0467057 446.525262,44.2779424 C446.295985,42.8892088 445.074836,42.8296916 445.074836,42.8296916 L444.092932,45.3244525 C443.793874,43.9257993 442.522882,43.5240586 442.522882,43.5240586 C442.468055,46.4255198 441.067471,50.2098191 441.152204,48.6078156 C441.386465,44.3324999 439.158491,43.7522076 439.158491,43.7522076 L438.346052,47.1050074 C437.528629,44.4465745 436.427103,44.0398738 436.427103,44.0398738 L434.742414,47.7398571 C434.159253,45.6021993 433.172365,44.1539485 433.172365,44.1539485 L431.836577,47.5662653 C431.293289,45.4881246 430.326339,43.8662822 430.326339,43.8662822 L428.870927,46.757824 C428.387452,44.6747235 427.031726,44.560649 427.031726,44.560649 C427.031726,44.560649 425.75575,47.0504501 425.715875,46.5941518 C425.561363,44.560649 424.788798,44.6995224 424.788798,44.6995224 L423.87169,47.5662653 C423.737115,46.3858418 423.059252,45.1409413 423.059252,45.1409413 C423.059252,45.1409413 422.012552,47.3777943 422.072364,47.1645246 C422.38139,45.9593022 421.025663,45.2550158 421.025663,45.2550158 L420.223194,47.2686796 C419.978964,46.4156004 419.012012,45.7212336 419.012012,45.7212336 L417.621398,47.7646559 C416.769085,46.3015259 415.413359,46.2618477 415.413359,46.2618477 L414.441425,48.0622417 C414.062618,46.9562145 412.397868,46.6487092 412.397868,46.6487092 L411.042143,48.09696 C411.042143,48.09696 410.274563,48.0920003 409.890773,48.1118393 C408.649686,48.1763163 407.398631,48.4491033 406.162528,49.312102 C410.578603,51.2216108 414.99468,51.0579385 419.41574,50.8446688 C420.21821,50.8049906 425.566346,49.1980275 428.626697,50.0114286 C430.889562,50.6165196 429.214842,51.5191965 427.550092,51.6630297 C423.487901,52.0102131 422.23186,54.4008188 420.686732,55.2588579 C419.904199,55.6903573 419.041918,55.9829832 418.045062,56.4045632 C418.852516,56.8856601 419.595174,57.0592518 420.432534,57.4064353 C420.731591,57.5304294 420.362753,58.3934281 420.661811,58.5075026 C420.970837,58.6215771 422.321578,57.580027 422.321578,57.580027 C422.635587,58.041285 422.261766,58.834847 422.635587,58.9390021 C422.934645,59.023318 423.856737,58.8497263 424.29037,58.185118 C424.5346,57.8131358 424.788798,59.3060245 425.222431,59.40026 C425.591269,59.4796162 426.588125,59.2861854 426.737653,58.7058932 C426.87223,58.1503997 427.535139,59.9904718 428.098363,60.0946268 C428.462216,60.1591037 429.174969,60.0351096 429.54879,59.40026 C429.678381,59.1869902 429.678381,60.5658043 429.927595,60.6154019 C430.31637,60.6897984 431.088934,60.4715688 431.437834,59.777202 C431.602315,59.4498576 431.866482,60.9973037 432.220366,61.0766599 C432.609141,61.1609758 433.501328,61.1064185 433.989788,60.2087013 C434.134332,59.945834 434.80721,61.5974351 435.096299,61.681751 C435.5399,61.8057451 436.028359,61.4238433 436.636443,60.6699593 C436.860735,60.7443558 437.329258,61.8305439 437.568504,61.8851013 C438.266304,62.038854 438.326114,62.2025261 438.964104,61.220493 C438.964104,61.220493 439.417672,62.3612385 439.806447,62.4951521 C440.997692,62.8968929 442.014485,63.4871048 441.969626,65.4362916 C441.869941,69.2503495 438.998994,71.4376049 435.569806,72.4692357 C431.771781,73.6099812 427.784354,73.277677 424.130873,72.0030179 C419.106714,70.2522216 413.992838,70.3365375 408.973665,70.9069102 C395.605813,72.4295575 382.32768,74.5176177 369.777252,79.725369 C366.258348,81.1835393 363.28273,83.3112776 360.984975,86.3119342 C354.944021,94.2029173 350.503025,102.981698 346.60033,112.063024 C345.20473,115.306709 343.594806,118.466078 342.0746,121.655206 C340.399881,125.151839 341.326957,131.024199 344.242764,133.960377 C347.028978,136.767604 350.348512,135.58718 353.393909,134.580348 C358.81681,132.784914 364.184885,130.805968 369.513085,128.742707 C374.068721,126.981991 378.873571,126.37194 383.613625,126.242986 C389.918746,126.064435 391.384125,132.090547 394.255072,136.01868 C395.730421,138.037303 395.650672,140.82469 392.560416,143.240094 C392.814615,139.3566 392.086909,138.607676 388.891983,138.478722 C387.974874,140.050967 389.495081,140.070806 389.285741,141.801764 C389.096338,143.423606 386.190501,145.853889 386.190501,145.853889 C386.190501,145.853889 387.192341,143.299612 385.851569,141.67281 C384.914523,140.532063 384.371237,138.389446 383.518924,138.057142 C380.727725,136.951115 381.31587,134.75394 372.030148,138.012504 C363.995483,140.83461 360.975006,141.920797 353.01012,145.144643 C350.53293,146.334986 346.106885,148.284173 346.106885,148.284173 C346.106885,148.284173 347.666966,150.580544 348.997771,151.225313 C357.854844,155.510548 368.391621,154.756665 378.474828,153.075305 C385.552512,151.894881 395.142276,161.358109 395.386505,168.604323 C395.451301,170.374958 394.793375,172.909397 392.934237,174.069982 C393.278153,171.525622 392.685023,170.722142 391.354219,170.211286 C391.279454,170.236085 391.075099,170.231125 391.015288,170.3204 C388.886998,173.549206 385.268408,173.950947 385.268408,173.950947 C385.268408,173.950947 388.637784,168.981265 385.707025,167.904996 C383.224851,166.9924 381.266028,164.790265 378.484797,163.996703 C370.111199,161.601138 361.617979,161.189477 353.25435,163.302336 C343.80913,165.692942 337.738272,161.239074 332.734051,154.335085 C324.455155,142.90779 327.44074,142.595325 312.732118,149.350522 C303.441412,153.620878 293.447921,155.991645 283.848191,159.45356 C281.261347,160.385995 279.232743,161.496982 279.611548,164.581955 C280.972258,175.637266 273.720124,182.199033 266.742126,188.770719 C259.549803,195.540796 252.128204,202.052965 246.341451,210.167137 C243.535298,214.105189 243.360849,217.572062 246.48101,221.435719 C250.23916,226.102855 253.738128,230.988222 257.227128,235.868629 C259.759143,239.4099 259.669427,244.885478 257.112489,248.436669 C254.510693,252.057295 251.933817,255.677922 248.664126,258.817452 C235.99906,270.978792 224.335834,266.053746 213.385363,255.73248 C211.177324,253.654339 211.042749,251.020706 212.388505,246.204775 C214.855726,251.615876 218.843154,252.459036 223.583208,251.397647 C224.006872,251.298452 224.624923,251.9581 225.128336,252.305284 C228.642256,254.735568 233.830897,254.423102 237.100587,251.576198 C240.255639,248.833449 240.564665,245.351696 238.02268,240.873029 C237.18532,239.404941 236.362914,237.907091 235.356088,236.558036 C234.633366,235.595842 233.377327,234.147591 232.355548,234.832038 C227.037316,238.398108 228.143827,233.31435 227.341358,231.186612 C226.409297,228.72657 225.407456,226.355803 223.986935,224.11895 C220.5727,218.742567 220.74715,215.1269 224.664798,210.29609 C231.283927,202.132321 235.994076,193.303943 236.851373,182.516457 C237.32488,176.559782 234.703147,175.905094 234.314373,170.900692 C234.314373,170.900692 233.551777,169.080459 231.363675,176.599461 C227.221736,190.85382 215.653212,198.943193 204.219263,207.007767 C198.567085,210.995417 192.376604,214.229183 187.641534,219.51133 C184.00799,223.558497 182.741983,228.503381 182.248538,233.473064 C181.81989,237.827735 181.640455,242.271682 181.879701,246.750348 C182.303366,254.651251 186.574897,259.000964 193.368477,261.937144 C199.264885,264.491421 205.619847,264.992357 211.745533,266.505085 C215.433902,267.412722 218.633813,269.168478 221.51473,271.539245 C222.641178,272.46672 223.264214,273.845535 222.705973,275.273946 C222.058018,276.945386 220.567716,275.760003 219.466189,275.943515 C214.043288,276.836271 208.630354,277.768707 203.212437,278.691223 L202.280376,278.691223 C200.505971,277.362006 198.228153,275.834399 196.359046,276.732117 C191.474448,279.083045 186.405431,277.986937 181.75011,277.376885 C170.301208,275.864159 165.4515,271.544205 165.790431,260.493852 C165.880148,257.567592 165.860211,254.636372 165.780462,251.710112 C165.610997,245.386414 165.167396,245.009473 159.096536,245.426093 C158.503407,245.46577 157.830529,245.386414 157.636142,243.992721 C164.170538,241.572356 163.492676,236.310047 162.356259,230.720394 C160.726398,222.715337 163.223524,215.603037 169.867575,211.263244 C176.302287,207.052405 179.731475,201.120529 182.522673,194.682756 C185.57804,187.639893 189.316254,181.276517 194.988369,176.024128 C201.49286,170.002976 201.029321,165.866533 193.428287,161.144839 C189.316254,158.590562 185.812301,155.520468 182.926401,151.552657 C176.800714,143.1409 168.033359,138.062102 158.473501,134.778738 C141.825991,129.055172 124.281311,127.968984 106.906096,126.252906 C81.0625812,123.703588 55.3187527,121.188988 31.1050992,110.510618 C6.62229453,99.7132139 1.52337165,83.7477368 0.581341905,78.9020483 C-0.814257712,71.7351907 0.406891953,63.8690064 3.13329549,57.2626021 C7.9730356,45.5327626 14.587181,38.951157 24.5208596,31.0651338 C33.9112514,23.6155696 43.7851186,16.6818209 54.8253084,11.5583857 C66.3838638,6.19192214 78.1069006,1.51982535 90.9364486,0.403878666 C94.4653218,0.0963733583 98.1337552,-0.558315363 101.82711,0.984170942 C100.391636,2.92839805 98.5574193,3.48389151 96.7780299,3.77651754 C86.7745711,5.43307839 77.5237394,9.11322256 68.3526562,13.3290211 C51.5506336,21.0464124 36.5778434,31.1841681 24.2417398,44.9425507 C17.8917614,52.0300521 14.4625738,58.6265369 13.2464085,68.1443222 C12.274473,75.7525988 16.3117432,82.4581983 21.0318606,86.6392786 C30.8658536,95.3535822 52.8664848,101.786395 86.2711584,100.348064 C93.4784336,100.040558 100.820284,100.060397 107.99267,99.6090589 C119.212294,98.9047726 130.377091,96.781994 141.467123,94.7336119 C153.57395,92.4967588 165.596044,89.7738489 177.608169,87.0558987 C184.690837,85.4489355 191.723662,83.5741451 198.706645,81.58528 C208.525685,78.7978932 218.623844,79.7799263 228.582445,78.9268471 C237.15043,78.1928022 245.71343,77.5182743 254.266463,78.0043312 C267.699108,78.7681347 281.096864,80.3651783 294.579354,79.7154494 C310.185148,78.9615654 323.418423,74.5672153 331.348419,59.2663464 C338.470962,45.5178833 350.213936,35.6529146 363.811063,28.4810973 C371.790903,24.2752182 380.40873,20.7785852 389.993509,23.8635579 C392.60029,24.7017578 394.260056,22.8269674 394.858171,20.6595509 C396.059383,16.240402 398.312279,16.7661369 401.33774,18.7401227 C403.376313,20.0742988 405.61924,22.2714739 407.966839,21.4927911 C412.283229,20.0643794 416.594635,20.4214823 420.836261,20.6545911 C435.868862,21.4927911 442.438149,26.2789624 448.588756,40.0423049 C448.55885,40.3646894 448.55885,40.6721948 448.55885,40.9797001 Z" id="path-2"></path>
                </g>
                <g id="dinosaur2" transform="translate(683.500000, 182.500000) scale(-1, 1) translate(-683.500000, -182.500000) translate(461.000000, 22.000000)" fill="#7564BE">
                    <path d="M418.827003,51.234875 C412.387589,45.3446635 403.024682,45.2381113 394.318592,44.2152091 C392.880457,44.0447255 391.124644,43.1667344 389.609233,43.2775488 C387.501398,43.4352463 385.818566,45.0846759 383.951136,45.6174374 C375.214996,48.093713 364.061932,45.0292687 357.558126,40.4688301 L353.316696,40 C349.414411,40.0596693 346.482331,45.7239898 342.477017,46.5508356 C336.733058,47.7399593 332.066628,45.7921833 327.391614,47.0196658 C323.244634,48.1064993 318.466588,50.1224688 314.663042,52.6371032 C308.21504,56.8991954 305.424626,64.8522593 300.054157,70.8873819 C297.117783,74.181979 290.75135,79.5436912 286.857649,81.1845968 C278.155855,84.8457334 271.038156,81.4019627 262.812878,79.7781055 C244.748174,76.2149962 227.245847,77.2847829 213.323835,81.1845968 C207.524069,82.804191 200.934401,86.2223891 194.464938,86.3332036 C188.394716,86.4354939 182.281564,82.9320538 174.665885,83.0556555 C165.654998,83.2048279 156.1032,86.6400744 148.740803,90.0753209 C142.194065,93.1312401 136.840767,98.5185261 130.358422,101.305934 C123.76017,104.144487 115.921257,106.070952 108.674769,108.79443 C101.295201,111.56479 93.6666416,113.614856 86.5188919,116.282926 C60.9887615,125.804438 28.3752755,128.898717 21,154.65454 L21,164.951756 C22.7343488,170.91016 26.9543116,175.65813 29.0149241,180.862145 C31.5177097,180.695924 31.5391744,183.057123 32.7841278,184.139695 C42.5763302,192.595686 52.9309079,195.621771 67.1963566,199.112424 C71.223137,200.10123 76.2201222,203.608931 80.3928627,201.921144 C65.9514033,195.502432 47.0839199,190.895111 37.0255551,179.924484 C35.2182263,177.955399 31.8010439,173.373649 31.8396804,170.569193 C32.0242769,157.169174 58.2155206,161.022106 67.1920637,160.740808 C80.517358,160.323123 96.0020024,161.132921 109.1427,160.740808 C115.487669,160.549015 124.27103,160.796214 126.112703,165.889415 C130.89504,166.856911 134.823084,171.56226 140.725881,172.440252 C142.923867,172.764171 145.048873,172.205835 147.328426,172.440252 C157.734518,173.501512 166.277475,179.719904 170.896682,184.139695 C166.612325,188.342117 160.580739,188.904713 155.81128,192.092759 C151.363791,195.063436 148.058226,198.946203 142.614774,200.518915 C138.489255,201.708039 134.30793,201.567389 129.413976,203.323372 C126.460431,205.855054 122.996026,207.875285 122.815723,213.151755 C119.480106,215.299851 118.518487,219.809143 114.800798,221.577912 C115.689438,224.446299 114.719233,225.520347 113.38842,227.195349 C115.633629,228.145795 116.492218,225.328553 117.157624,226.257688 C112.285134,231.3722 108.112394,236.469662 107.258098,244.503706 C110.121491,250.709312 113.397006,256.510018 116.213177,262.753984 C121.04703,267.00329 130.427111,266.743303 136.48016,269.777911 C139.004409,268.213725 144.220335,267.932427 147.792063,268.835989 C151.037527,262.532355 145.860238,262.208436 142.606189,259.945265 C140.464009,258.457795 137.583446,254.076365 134.119041,255.265488 C133.230402,245.300716 134.007425,235.041861 136.475867,224.378107 C140.335222,218.466584 150.822881,216.007357 160.044123,218.291838 C158.803462,221.352022 155.89714,223.176196 155.330471,226.249166 C154.231478,232.220356 157.438304,233.754708 159.099676,237.48404 C160.864073,241.430738 162.658524,246.400337 163.341101,250.581449 C163.830497,253.581962 164.860803,257.370961 164.75348,259.941004 C164.706258,261.091767 163.504233,265.643683 162.396654,263.687382 C163.560042,267.753417 159.237049,271.95584 161.452207,275.851393 C165.925454,278.745353 173.455274,278.600443 178.422211,281 L180.30681,281 C180.375499,274.189178 190.596996,273.328235 193.507611,278.191282 C198.822273,278.53225 204.175573,278.826334 210.005389,278.65585 C210.80817,274.180652 215.697831,270.26379 220.84507,273.046937 C219.930673,265.375172 210.408927,266.244637 205.75967,262.280893 C191.932101,264.045398 186.819207,257.933558 179.834588,251.050279 C178.727008,243.838819 173.116133,238.319411 174.648713,231.86234 C175.85503,226.786188 181.723482,216.898133 185.492687,214.549722 C189.841438,211.830507 195.66696,212.414413 198.689193,208.463454 C201.475312,204.823627 200.389197,200.476293 201.518242,196.29518 C203.244005,189.897781 209.163973,186.364507 211.413474,178.982562 C219.162237,177.985234 227.692313,176.033195 235.453953,173.365125 C241.755993,171.204244 247.448436,167.504749 252.423957,165.880892 C258.331045,163.950164 258.180793,165.932037 262.319189,168.22078 C267.8485,171.268176 272.068462,172.397631 275.047765,177.580334 C279.035909,177.056097 280.160659,179.366151 282.586172,180.389054 C282.762183,172.397631 274.532611,170.321991 272.218715,166.34546 C273.995993,167.129685 278.924291,165.633691 281.178088,167.278858 C280.96344,163.123318 277.632117,162.070581 273.635387,161.669945 C275.65307,160.70245 278.546514,160.617208 280.23364,159.330055 C284.694009,166.464798 293.962469,170.688532 304.74205,171.025238 C308.193575,171.131789 311.773891,169.235158 314.645869,171.494067 C315.238296,173.544133 318.406486,175.85845 319.831742,178.513732 C322.325943,175.572888 322.21862,167.266072 317.002693,167.274596 C317.642343,165.885154 320.265331,166.456274 322.192862,166.341197 C318.775681,157.190486 310.511764,166.255957 305.218565,165.407799 C300.140014,164.589479 296.615511,158.997612 290.137457,158.388133 C288.613462,150.878328 297.701624,148.073871 298.143797,139.664763 C314.607233,132.14217 334.427748,127.952534 344.344447,113.925988 C351.569469,116.210469 358.068985,117.506146 366.968256,119.074595 C378.649353,121.133186 386.222103,130.296684 396.198901,129.836378 C402.170385,129.563604 406.729491,125.13529 409.867633,120.476824 C406.853985,117.761872 406.038326,116.223257 404.209533,112.988328 C402.810034,113.448634 402.548164,114.322362 403.269379,112.519497 C401.530737,112.349013 401.298917,113.683048 400.90826,114.859386 C399.530226,114.463012 401.195887,113.350607 400.90826,112.519497 C399.444365,112.459828 398.508504,113.282413 397.606987,114.859386 C396.568094,114.390556 398.770373,113.248316 398.079211,111.581838 C396.370619,111.603148 396.563801,113.508303 395.250162,113.921726 C394.507481,112.532284 396.765569,108.713449 395.250162,106.43323 C393.739045,106.335202 394.103945,108.103971 393.369852,108.773119 C392.313789,108.572801 393.17667,106.463065 392.901921,105.495571 C391.107471,106.053904 390.46353,107.754479 389.600647,109.237686 C388.535997,108.888196 389.411758,106.612238 389.128426,105.495571 C388.136754,105.380493 386.548366,108.295764 387.243821,106.90206 C388.27842,101.898364 397.752946,108.048563 399.500174,104.093342 C399.315577,101.932461 396.641075,102.247856 394.782231,101.753453 C390.742569,98.2798488 386.642811,94.8531264 380.173346,93.8003899 C379.649608,87.0407113 380.731428,81.8707931 382.530172,77.4211699 C383.221336,77.6257486 382.341284,78.0221243 382.530172,78.8276593 C384.260227,78.9853577 383.951136,77.1228233 384.410479,76.0189407 C384.934219,78.1798209 386.093314,76.8244766 385.827153,79.7610572 C388.09812,80.1446457 386.745841,76.9310281 388.656202,76.9523395 C389.875397,77.5575569 388.291302,79.752533 389.124133,79.7610572 C391.575401,80.4813503 389.86681,77.0674151 391.948889,77.4211699 C393.056466,78.5080031 393.498641,80.2554602 393.833488,82.1009463 C395.374656,81.7599787 395.675164,80.1830054 395.722387,78.3545677 C396.422135,80.1531699 397.370877,81.7088335 397.602693,83.9720049 C400.401694,83.1622069 400.028206,79.2069849 402.32493,77.8857373 C402.303464,79.9272798 402.73276,81.5383498 403.265086,83.0343441 C405.587567,82.3737203 405.63479,79.4584493 406.094135,76.9480765 C407.605249,79.7908927 409.227984,75.707808 409.395409,78.3545677 C410.636066,78.4952159 410.936574,77.7067293 410.803492,76.483509 C411.743647,77.2719957 411.563344,79.1686269 412.692389,79.7610572 C414.873202,79.6971267 412.997185,74.8852243 415.512851,76.483509 C415.800477,74.1223098 416.517399,77.8899985 416.929522,78.3545677 C419.870188,75.0343976 419.943168,68.8671503 424,66.6551242 L424,61.5065171 C422.102519,58.1735608 420.707309,55.4117251 418.827003,51.234875 Z" id="path-1" transform="translate(222.500000, 160.500000) rotate(-12.000000) translate(-222.500000, -160.500000) "></path>
                </g>
                <g id="dinosaur3" transform="translate(155.000000, 80.000000)" fill="#01C3E2">
                    <path d="M522.376249,100.928792 C518.273208,94.5353604 508.57821,93.7553959 503.793223,88.0451449 C508.095165,85.0733094 513.607561,83.3141194 514.869161,77.3078234 C506.651713,74.4840104 493.893641,78.3781397 486.647966,74.4441582 C482.544925,72.2181281 480.612745,67.8685451 481.999368,63.3481669 C484.28957,55.8673396 493.905007,46.1434026 500.582394,40.8032078 C506.378934,36.163273 516.591074,31.4777929 524.154991,28.2725373 C531.298375,25.2437701 523.330973,23.5756708 517.011608,24.3328626 C503.628419,25.9440302 495.09273,32.7872223 485.21588,37.2222029 C492.052387,27.0428123 503.406787,20.193927 514.505457,14.6715506 C517.892455,12.992065 522.188714,12.7358723 524.865351,9.66155969 C522.53537,5.49415815 517.119583,7.76573358 514.147435,8.23257364 C493.529937,11.4378292 479.317048,21.7823218 468.06494,34.005561 C463.200393,39.2888242 459.455373,45.1641772 454.840872,49.7585666 C453.289445,51.301416 449.987691,54.0398315 448.055511,54.4098877 C445.378873,54.9222731 442.81021,52.9865948 440.190401,52.6222318 C437.354643,52.229403 433.871036,52.7304021 431.972953,52.263562 C423.86348,50.270952 415.36757,46.6557881 408.752695,44.031236 C406.650028,38.2242011 398.262094,35.8444554 401.25129,27.2079142 C393.909005,26.7183015 394.164735,17.0683758 388.038588,15.3945834 C385.378999,14.6715506 383.105846,15.6906283 380.889521,14.3242671 C379.372192,13.3962802 379.008487,11.6940219 377.314988,10.0316158 C376.024974,10.2935017 375.507832,11.3239658 373.740455,11.1019321 C372.245857,8.0617785 370.245482,5.53401035 368.023475,3.2282759 C366.27883,2.23766406 366.545926,4.98177272 364.096603,4.30428531 C362.658834,3.23966224 361.885962,1.49755176 359.806027,1.08195024 C358.334161,1.40646102 358.623988,3.47877544 356.595198,3.2282759 C354.878968,1.93592597 353.833318,-1.03021638 350.520197,0.364610633 C347.979949,6.72957637 352.929739,12.3373503 355.879155,16.476286 C356.305371,17.9906696 353.628734,19.0951449 353.731026,20.4102675 C353.787855,21.1162207 355.06082,21.389493 355.521134,22.1979233 C356.231494,23.4618074 355.901887,24.7712368 356.231494,25.4202584 C357.66358,28.2668441 361.323357,30.1057385 361.590452,32.576575 C361.70411,33.8803112 361.533623,34.9050821 361.238114,35.79891 C365.437764,37.5865659 363.874971,41.9076831 365.164985,46.1775617 C365.835566,48.4263644 369.302124,49.8553505 368.375814,52.6222318 C371.751446,54.1309223 372.683439,58.0933696 375.166859,60.495888 L375.166859,65.1472091 C376.871724,67.8571587 381.741954,69.291838 382.668264,71.5918792 C364.687623,76.7157336 348.423213,68.6769754 332.99987,66.2232185 C314.257723,63.2399967 296.953346,56.6700767 275.830071,57.6322227 C267.4876,58.0136652 259.184908,58.1332218 250.819705,59.4198786 C234.083616,61.9988853 215.597199,68.1076583 201.151312,73.7382049 C189.018357,78.4692304 180.261035,84.4527537 170.071627,90.5615267 C165.042276,93.5732144 159.563977,96.414107 155.421155,99.8641689 C150.28383,104.139741 146.186471,109.525481 141.128706,113.829519 C132.036094,121.560845 119.636044,128.153538 109.327295,134.586822 C101.405357,139.534188 94.1142183,144.714974 86.1013538,149.263818 C80.6344208,152.366596 75.7300932,156.556771 70.3825007,158.92513 C63.8415028,161.828647 56.6526564,164.612608 49.6627108,166.798786 C34.9554107,171.410255 16.7304063,171.911254 0,170.744154 C6.23412218,178.281913 16.2018982,182.380997 26.4424526,184.339448 C50.7481414,188.985076 81.9358009,185.774127 102.189594,180.758443 C118.294884,176.76753 131.558732,167.214388 147.561729,166.798786 C164.110283,166.383185 169.975018,176.460098 181.153248,181.470089 C178.22088,185.728581 173.157432,187.886293 170.07731,192.213104 C167.912131,195.253257 166.286827,198.691933 163.286265,201.162769 C158.171671,205.370023 150.40317,207.089361 146.845686,211.547114 C145.066943,225.193646 153.523073,234.991594 156.49522,244.470725 C157.069191,246.309619 156.881656,247.744299 157.569285,248.763376 C159.995876,252.355767 165.752636,252.071109 169.719288,250.198055 C172.134513,253.118652 176.737648,251.308224 178.294758,249.845079 C179.181287,245.370246 173.720037,242.848171 172.219756,239.102064 C170.668329,235.225014 173.117652,230.385819 175.078246,226.58278 C185.995064,221.17996 195.661647,214.507563 207.226313,209.748072 C207.311556,223.388911 204.157556,243.075898 209.732464,255.21374 C210.357581,256.574408 212.016983,257.348679 212.232933,258.783358 C218.484103,260.303435 227.474424,260.849979 235.458874,259.859368 C238.175291,259.52347 240.891709,258.424688 244.034343,258.783358 C246.39274,259.062324 248.432895,260.337594 250.103662,259.859368 C251.456188,259.477925 252.007428,257.735815 253.320174,257.001395 C255.735399,255.640727 258.292696,256.170192 259.389492,254.490707 C259.400858,245.142519 250.063882,244.197453 244.744704,240.178074 C240.63598,237.075295 238.538996,233.209632 236.169234,228.35905 C242.534062,218.276443 245.898329,205.187842 253.320174,196.147085 C265.5952,200.19493 282.31424,199.26125 294.759753,197.223095 C290.310056,214.536029 300.47105,222.984696 308.341843,230.869738 C311.950473,234.473516 316.036466,238.253782 318.343716,241.965729 C319.145002,243.241 320.724844,245.677677 320.844184,246.970027 C321.094231,249.628738 318.62786,252.093882 319.059759,254.485014 C320.088361,260.183878 332.522508,259.734118 336.56872,262 C338.108781,261.98292 338.216756,260.548241 339.785232,260.565321 C345.161239,261.886137 346.797909,258.003394 353.003617,259.142028 C354.663018,256.984316 358.436452,256.95585 360.505022,255.208046 C358.84562,251.21144 354.537995,250.966634 351.57153,249.116353 C350.241736,248.290843 348.957404,246.258381 347.286637,245.182371 C345.882965,244.288543 344.962338,244.664293 344.070125,243.394716 C342.592576,241.311015 341.649217,236.346569 341.211635,233.374734 C340.09779,225.8996 338.733899,215.21921 336.56872,208.324779 C340.063693,205.028433 343.348399,201.510053 345.860233,197.228788 C351.037339,193.124011 355.924618,188.916757 361.584769,185.426843 C364.716038,183.474086 368.370131,182.477781 369.802218,181.117113 C371.024037,179.967092 370.859234,178.236368 371.944664,176.824461 C373.581335,174.717988 377.275208,172.429333 380.162113,172.896173 C383.708231,173.46549 387.277082,180.16066 389.800281,182.551792 C395.000119,187.459306 401.995747,190.57347 407.309243,193.647783 C406.598882,201.276633 412.520446,204.390798 416.953094,206.8901 C423.86348,210.778536 432.950409,212.372624 437.320545,217.633115 C436.826135,219.88761 438.025223,222.979003 439.104971,224.795124 C443.827446,227.522153 450.072934,228.598163 454.119146,231.587078 C456.824198,233.585381 458.36426,237.041136 460.188465,238.037441 C464.291506,240.246392 465.189402,237.428272 466.97951,236.249785 C468.121769,235.475514 469.883463,236.68816 470.190338,234.815106 C469.03103,231.404896 466.411221,228.854356 465.183719,225.506771 C464.660893,224.083478 464.746137,222.466617 464.115337,221.214119 C462.796908,218.600954 460.069124,216.7279 458.398357,214.410779 C456.13657,211.273842 454.193024,207.988882 451.971017,205.461114 C448.243046,201.248167 445.486848,196.010449 441.957778,191.507151 C438.383244,186.924147 434.319983,182.973086 430.523818,178.97648 C425.653588,171.051585 421.658521,160.479366 421.232305,149.275204 C419.038712,143.707283 416.021102,138.987643 414.446943,132.804859 C416.29388,132.434803 417.55548,130.66992 419.44788,129.941194 C420.431018,129.565445 421.578961,129.918421 422.664391,129.582524 C425.829757,128.626071 429.091731,125.773792 431.5922,125.289873 C432.882214,125.045066 435.405414,125.238634 436.951158,125.289873 C439.309554,125.363884 441.719097,125.460668 443.73652,125.642849 C446.583644,125.899042 449.214819,127.441892 451.959651,127.794868 C458.574526,128.631764 463.870973,129.440195 469.820951,129.941194 C477.867913,130.624375 479.970579,131.501123 484.829444,134.592515 C489.256409,137.399249 493.331036,138.959178 498.40585,140.672822 C508.197457,139.380472 517.9436,138.059656 524.126577,133.163529 C521.114649,132.246928 517.159363,132.269701 515.198768,130.299864 C520.60319,127.720857 526.297438,131.347407 528.417153,135.309855 C532.622486,124.008909 527.70111,109.821526 522.376249,100.928792 Z M467.831942,76.7840517 C465.456497,77.1256419 454.272584,80.8546693 454.272584,80.8546693 L443.435327,69.6505078 L450.584393,68.1702832 C450.584393,68.1702832 461.762623,67.4871026 463.461805,68.1702832 C465.149621,68.8534638 470.201704,76.4424614 467.831942,76.7840517 Z" id="Shape"></path>
                </g>
            </g>
        </g>
    </g>
</svg>