<?xml version="1.0" encoding="UTF-8"?>
<svg width="345px" height="216px" viewBox="0 0 345 216" version="1.1" xmlns="http://www.w3.org/2000/svg" xmlns:xlink="http://www.w3.org/1999/xlink">
    <!-- Generator: Sketch 41.2 (35397) - http://www.bohemiancoding.com/sketch -->
    <title>logotype</title>
    <desc>Created with Sketch.</desc>
    <defs></defs>
    <g id="Page-1" stroke="none" stroke-width="1" fill="none" fill-rule="evenodd">
        <g id="logotype" transform="translate(-1.000000, -4.000000)" fill="#F0B929">
            <g id="Page-1">
                <g id="logotype">
                    <g id="Page-1">
                        <g id="Artboard">
                            <g id="dinosaur" transform="translate(174.500000, 111.000000) rotate(-1.000000) translate(-174.500000, -111.000000) translate(2.000000, 3.000000)">
                                <g id="Mask">
                                    <path d="M344.977,31.7613706 C344.678002,32.4187067 343.512677,34.9135087 343.413011,34.3176777 C343.236679,33.2413379 342.297519,33.195209 342.297519,33.195209 L341.542358,35.1287767 C341.312359,34.0447487 340.334866,33.733379 340.334866,33.733379 C340.2927,35.9821604 339.215541,38.9151865 339.280707,37.6735516 C339.460872,34.3599625 337.747385,33.9102062 337.747385,33.9102062 L337.122556,36.5087981 C336.493893,34.4483762 335.646733,34.1331623 335.646733,34.1331623 L334.351075,37.0008392 C333.902578,35.3440447 333.143584,34.221576 333.143584,34.221576 L332.116258,36.8662967 C331.698427,35.255631 330.954766,33.9986199 330.954766,33.9986199 L329.83544,36.2397132 C329.46361,34.6252034 328.42095,34.5367898 328.42095,34.5367898 C328.42095,34.5367898 327.439624,36.4665134 327.408957,36.1128588 C327.290125,34.5367898 326.695962,34.6444238 326.695962,34.6444238 L325.990634,36.8662967 C325.887135,35.9514079 325.365805,34.9865461 325.365805,34.9865461 C325.365805,34.9865461 324.560811,36.720222 324.606811,36.554927 C324.844476,35.6208178 323.801816,35.0749597 323.801816,35.0749597 L323.184654,36.6356525 C322.996822,35.9744723 322.25316,35.4363024 322.25316,35.4363024 L321.183668,37.0200596 C320.528173,35.8860587 319.485513,35.8553061 319.485513,35.8553061 L318.738019,37.2507038 C318.446687,36.393476 317.166363,36.1551436 317.166363,36.1551436 L316.123704,37.2776123 C316.123704,37.2776123 315.533375,37.2737683 315.23821,37.2891445 C314.283717,37.3391175 313.321557,37.5505414 312.370897,38.2194097 C315.767206,39.699377 319.163516,39.5725226 322.563658,39.4072276 C323.180821,39.376475 327.293958,38.1309961 329.647608,38.7614237 C331.387929,39.2304003 330.099938,39.9300212 328.819614,40.0414993 C325.69547,40.3105843 324.729476,42.1634264 323.541151,42.8284507 C322.939322,43.1628849 322.27616,43.389685 321.509499,43.7164311 C322.130495,44.0893059 322.701657,44.2238484 323.345653,44.4929334 C323.575651,44.5890352 323.291986,45.2579035 323.521985,45.3463171 C323.75965,45.4347307 324.798476,44.6274759 324.798476,44.6274759 C325.039974,44.9849745 324.752476,45.6000258 325.039974,45.6807513 C325.269973,45.7461005 325.979134,45.611558 326.312632,45.0964525 C326.500464,44.8081472 326.695962,45.9652125 327.02946,46.0382499 C327.313125,46.099755 328.079786,45.9498362 328.194785,45.50008 C328.298285,45.069544 328.808114,46.4956943 329.241278,46.5764198 C329.521109,46.6263927 330.069272,46.5302909 330.35677,46.0382499 C330.456436,45.8729548 330.456436,46.9416065 330.648101,46.9800472 C330.947099,47.0377083 331.541262,46.8685692 331.809593,46.3303993 C331.936092,46.0766906 332.139257,47.2760407 332.411422,47.3375458 C332.71042,47.402895 333.396582,47.3606103 333.772246,46.6648334 C333.883412,46.4610977 334.400908,47.7411733 334.62324,47.8065225 C334.964404,47.9026243 335.340068,47.6066308 335.807732,47.022332 C335.98023,47.0799931 336.340561,47.9218446 336.52456,47.9641294 C337.061223,48.0832956 337.107222,48.2101499 337.597886,47.4490239 C337.597886,47.4490239 337.946716,48.3331602 338.245714,48.4369501 C339.161875,48.7483198 339.943869,49.2057643 339.909369,50.7164841 C339.832703,53.6725747 337.624719,55.3678099 334.987404,56.1673767 C332.066425,57.051513 328.99978,56.7939602 326.189966,55.806034 C322.325993,54.449077 318.393021,54.5144262 314.532882,54.9564943 C304.251954,56.1366241 294.040026,57.7549779 284.387761,61.7912524 C281.681447,62.9214092 279.392963,64.5705156 277.625809,66.8961785 C272.979841,73.0120953 269.564366,79.8161007 266.562887,86.8545945 C265.489561,89.3686169 264.251403,91.81729 263.082245,94.2890276 C261.794254,96.9990976 262.507249,101.550478 264.749733,103.826167 C266.892551,106.001912 269.445533,105.087023 271.787683,104.306676 C275.95832,102.915123 280.086791,101.381338 284.184596,99.7822049 C287.688238,98.4175598 291.383545,97.944739 295.029019,97.8447932 C299.878152,97.7064066 301.005144,102.376953 303.213128,105.421457 C304.347787,106.985994 304.286454,109.146362 301.909804,111.018424 C302.105303,108.008517 301.54564,107.428062 299.088491,107.328116 C298.383162,108.546687 299.552321,108.562063 299.391322,109.903644 C299.245656,111.160655 297.010839,113.044249 297.010839,113.044249 C297.010839,113.044249 297.781333,111.064553 296.750174,109.803698 C296.029512,108.919561 295.611682,107.258923 294.956186,107.00137 C292.809535,106.144142 293.261865,104.441219 286.120415,106.966773 C279.941126,109.15405 277.618142,109.995901 271.492519,112.494547 C269.587365,113.417124 266.183389,114.927844 266.183389,114.927844 C266.183389,114.927844 267.383214,116.707649 268.406707,117.207378 C275.218492,120.528655 283.322102,119.944357 291.07688,118.641217 C296.520175,117.726328 303.895457,125.060815 304.083289,130.677003 C304.133122,132.049336 303.627125,134.013656 302.197302,134.913169 C302.4618,132.94116 302.005637,132.318421 300.982144,131.922482 C300.924644,131.941702 300.767479,131.937858 300.721479,132.007051 C299.084657,134.509541 296.301677,134.820911 296.301677,134.820911 C296.301677,134.820911 298.892992,130.969152 296.639008,130.134989 C294.730021,129.42768 293.223532,127.720912 291.084547,127.105861 C284.644592,125.249175 278.112639,124.930117 271.680351,126.567691 C264.416235,128.420533 259.747268,124.968557 255.898629,119.617611 C249.531507,110.760871 251.827657,110.518695 240.515571,115.754319 C233.370288,119.064064 225.684508,120.90153 218.301561,123.584692 C216.312075,124.307377 214.751919,125.168449 215.04325,127.559461 C216.089743,136.127895 210.512282,141.213601 205.145653,146.306995 C199.614192,151.554152 193.906399,156.601417 189.455931,162.890317 C187.297779,165.942509 187.163614,168.629514 189.563263,171.624046 C192.453576,175.241316 195.144557,179.027726 197.827872,182.810292 C199.775191,185.554959 199.706192,189.798813 197.739706,192.551168 C195.73872,195.357339 193.7569,198.163511 191.242251,200.596808 C181.50182,210.02247 172.531883,206.205307 164.11011,198.205796 C162.411955,196.59513 162.308456,194.553929 163.343448,190.821336 C165.240935,195.015217 168.30758,195.668709 171.953054,194.846078 C172.278885,194.769197 172.754215,195.280458 173.141379,195.549543 C175.84386,197.433138 179.834332,197.190961 182.348981,194.984464 C184.775464,192.858693 185.013129,190.160156 183.058143,186.688959 C182.414147,185.551115 181.781652,184.390205 181.007324,183.344618 C180.451494,182.598868 179.485501,181.476399 178.699673,182.006881 C174.609535,184.770768 175.460529,180.830595 174.843367,179.181489 C174.126539,177.27483 173.356044,175.437364 172.263552,173.703688 C169.637737,169.536715 169.771903,166.734388 172.784882,162.990262 C177.875512,156.662922 181.497987,149.820476 182.157316,141.459621 C182.52148,136.842892 180.505161,136.335475 180.206163,132.456807 C180.206163,132.456807 179.619667,131.046033 177.936845,136.873645 C174.751368,147.921505 165.854264,154.191184 157.060659,160.441643 C152.71369,163.532276 147.952724,166.038611 144.311083,170.132546 C141.516602,173.269308 140.542943,177.101847 140.163445,180.953606 C139.833781,184.3287 139.695782,187.772987 139.879781,191.244183 C140.205612,197.367788 143.490755,200.739039 148.715552,203.014729 C153.250353,204.994425 158.137818,205.382676 162.848952,206.555118 C165.685598,207.258583 168.146581,208.619384 170.362232,210.45685 C171.228559,211.175691 171.707723,212.244343 171.278392,213.351435 C170.780063,214.646887 169.633904,213.728154 168.786743,213.870385 C164.616106,214.562317 160.453135,215.285003 156.286331,216 L155.569503,216 C154.204846,214.969789 152.453025,213.785815 151.015535,214.481592 C147.258895,216.303682 143.360423,215.454142 139.780115,214.981321 C130.97501,213.80888 127.245203,210.460694 127.505868,201.896104 C127.574867,199.628102 127.559534,197.356256 127.498201,195.088254 C127.367869,190.187064 127.026705,189.894915 122.357737,190.217817 C121.901574,190.248569 121.384078,190.187064 121.234579,189.10688 C126.260043,187.230973 125.738714,183.152414 124.86472,178.820146 C123.611229,172.615816 125.531715,167.103418 130.641512,163.739856 C135.590311,160.47624 138.227626,155.878731 140.374277,150.889127 C142.724094,145.430547 145.599074,140.498604 149.961376,136.427733 C154.963841,131.761031 154.607343,128.555075 148.761551,124.89552 C145.599074,122.915824 142.904259,120.536344 140.684775,117.461087 C135.973641,110.941543 129.230856,107.005214 121.878574,104.460439 C109.075331,100.024381 95.5820931,99.1825299 82.2191873,97.8524813 C62.3434942,95.8766289 42.5444673,93.927685 23.9222653,85.6514003 C5.09306482,77.282858 1.17159249,64.9087939 0.447097602,61.1531366 C-0.626228158,55.5984542 0.312931882,49.5017577 2.40975042,44.3814553 C6.13189083,35.2902277 11.2186883,30.1891456 18.8584677,24.0770729 C26.0804168,18.3032784 33.6741965,12.9292673 42.1649699,8.95834211 C51.0544072,4.79905742 60.0703436,1.17794264 69.937274,0.313026693 C72.6512548,0.0746942983 75.4725683,-0.432723059 78.3130482,0.762782987 C77.209056,2.26965877 75.7983993,2.70019471 74.429909,2.9269949 C66.7364632,4.21091457 59.6218468,7.06321517 52.5685632,10.3306754 C39.6464877,16.3120497 28.1312356,24.1693306 18.6438026,34.8327832 C13.7601703,40.3259605 11.1228556,45.4385748 10.1875289,52.8153468 C9.44003415,58.7121516 12.5450122,63.9093354 16.1751533,67.1498872 C23.7382666,73.9039197 40.6584806,78.8896797 66.3492993,77.7748991 C71.8922602,77.5365667 77.5387204,77.551943 83.0548481,77.2021325 C91.6836206,76.6562745 100.270227,75.0110121 108.799333,73.4234109 C118.110434,71.6897349 127.356369,69.57934 136.594637,67.4727891 C142.041765,66.2273102 147.45056,64.7742514 152.821023,63.2327789 C160.372636,61.0724111 168.138914,61.8335371 175.79786,61.172357 C182.387314,60.6034345 188.972934,60.0806408 195.550888,60.4573598 C205.881648,61.0493467 216.185575,62.2871375 226.554669,61.7835642 C238.556751,61.1992654 248.734179,57.7934186 254.832969,45.93446 C260.310764,35.2786955 269.342034,27.6328385 279.799293,22.074312 C285.936417,18.8145399 292.564203,16.1044699 299.935651,18.495482 C301.94047,19.14513 303.216961,17.6920712 303.676958,16.0122122 C304.600785,12.587145 306.333439,12.9946165 308.660256,14.5245568 C310.228079,15.5586118 311.953066,17.2615352 313.758554,16.6580161 C317.078197,15.5509237 320.394007,15.8276968 323.656151,16.0083681 C335.217402,16.6580161 340.2697,20.3675445 345,31.0348412 C344.977,31.2847058 344.977,31.5230382 344.977,31.7613706 Z" id="path-2"></path>
                                </g>
                            </g>
                        </g>
                    </g>
                </g>
            </g>
        </g>
    </g>
</svg>