<?xml version="1.0" encoding="UTF-8"?>
<svg width="96px" height="88px" viewBox="0 0 96 88" version="1.1" xmlns="http://www.w3.org/2000/svg" xmlns:xlink="http://www.w3.org/1999/xlink">
    <!-- Generator: Sketch 41.2 (35397) - http://www.bohemiancoding.com/sketch -->
    <title>Shape</title>
    <desc>Created with Sketch.</desc>
    <defs></defs>
    <g id="Page-1" stroke="none" stroke-width="1" fill="none" fill-rule="evenodd">
        <path d="M88.149,52.141 C88.521,49.867 89.584,48.284 89.56,45.616 C86.541,48.008 86.474,54.284 82.682,55.315 C84.107,52.103 83.693,47.958 82.859,44.381 C81.806,45.444 81.421,47.176 80.037,47.907 C79.319,50.893 78.022,53.301 75.629,54.608 C76.623,51.703 77.206,47.336 75.453,44.733 C74.177,45.297 73.93,47.771 72.455,47.554 C72.981,46.841 73.248,45.551 73.336,44.91 C71.797,44.689 71.895,46.601 71.572,47.378 C70.621,49.673 69.061,51.532 66.811,52.668 C67.468,50.386 68.745,48.723 68.398,45.439 C67.096,47.429 66.295,49.918 63.814,50.729 C64.651,49.014 65.748,46.582 64.872,44.205 C63.907,45.298 63.756,47.203 62.05,47.555 C62.446,46.702 63.451,44.285 62.226,43.499 C60.957,45.345 60.285,47.787 57.819,48.437 C58.632,46.842 59.348,45.147 59.053,42.441 C56.447,40.999 55.764,45.303 52.88,45.262 C53.331,43.813 55.916,42.142 54.468,40.502 C53.148,40.369 52.582,42.328 50.764,42.264 C51.167,41.316 51.998,40.794 52.35,39.795 C48.76,38.889 45.355,35.232 41.065,36.62 C39.228,37.216 37.36,39.243 35.774,40.677 C34.003,42.278 32.231,43.669 30.66,44.91 C32.889,46.912 34.972,49.062 38.243,50.024 C41.686,54.458 44.795,59.226 48.824,63.074 C49.849,63.041 49.583,61.717 50.411,61.487 C50.773,62.937 49.471,63.897 50.235,64.66 C51.423,64.497 51.734,63.456 52.174,62.545 C52.83,63.852 51.808,64.998 51.645,66.072 C53.086,65.967 54.167,64.021 54.819,62.545 C55.324,62.57 55.141,63.28 55.172,63.778 C55.743,63.997 55.307,63.208 55.879,63.426 C56.642,64.988 57.064,67.411 56.408,69.421 C58.497,68.571 59.406,66.542 59.758,63.954 C60.73,64.756 60.741,66.211 60.64,67.481 C60.49,69.361 58.657,71.2 59.935,71.89 C61.62,70.518 62.903,68.744 63.286,66.071 C64.496,67.085 64.209,69.894 63.639,71.361 C65.163,70.947 65.429,69.272 65.755,67.657 C67.223,68.748 66.223,72.13 65.755,73.477 C67.881,71.901 69.29,69.607 69.987,66.599 C71.507,68.864 70.43,73.276 69.458,75.241 C71.419,73.969 72.421,71.738 72.985,69.069 C74.682,70.457 73.165,74.318 73.69,75.769 C75.459,74.834 75.546,72.218 76.159,70.125 C76.949,70.806 76.976,72.248 77.217,73.477 C77.584,74.129 77.961,72.942 78.276,73.477 C79.467,75.778 78.807,79.527 79.334,82.119 C76.526,83.789 74.817,87.668 71.046,87.938 C69.054,88.081 65.484,87.095 63.287,86.527 C55.793,84.585 50.555,81.386 43.535,78.767 C39.513,77.266 34.618,75.171 29.78,74.183 C23.954,72.991 16.958,72.377 14.086,68.01 C12.514,65.619 12.342,63.053 11.44,60.073 C10.735,57.744 8.997,55.716 7.56,53.372 C6.079,50.955 5.04,48.403 3.857,46.672 C3.037,45.471 1.124,44.717 0.506,43.497 C1.294,39.876 2.57,36.744 6.15,35.914 C5.024,33.581 2.781,16.292 3.327,12.989 C3.438,12.315 3.988,11.73 4.032,11.225 C4.212,9.143 2.942,7.372 5.266,6.464 C5.549,6.354 5.837,6.566 6.325,6.464 C8.618,5.981 12.151,4.698 14.966,3.29 C18.575,1.483 21.627,0.053 26.606,0.645 C27.644,0.768 28.907,1.437 30.309,1.703 C31.571,1.942 33.012,1.773 34.012,2.056 C35.165,2.383 36.264,3.485 37.539,4.173 C38.85,4.881 40.434,5.109 41.595,5.584 C47.208,7.881 52.625,10.825 55.88,14.048 C62.925,15.938 69.404,18.392 77.745,18.986 C83.791,20.348 87.176,24.369 91.854,27.098 C94.516,29.637 97.277,37.291 94.323,41.03 C94.3,44.122 93.456,46.395 91.502,47.554 C90.976,49.567 89.69,51.727 88.149,52.141 Z M86.915,30.096 C89.436,30.693 89.62,33.622 93.087,33.271 C91.808,27.614 86.741,25.743 81.802,23.748 C82.827,26.543 85.978,27.213 86.915,30.096 Z M73.865,26.922 C73.524,25.42 71.873,24.851 70.691,24.982 C68.829,25.188 66.51,29.018 67.34,31.506 C70.373,33.43 74.522,29.812 73.865,26.922 Z M13.554,38.208 C16.574,38.852 20.761,39.406 23.783,40.854 C25.197,41.531 27.052,43.481 28.368,43.322 C29.357,43.204 30.484,41.517 31.189,40.678 C32.162,39.517 32.827,38.586 33.129,37.151 C26.587,38.116 19.523,36.713 13.554,38.208 Z M14.789,47.202 C14.242,48.864 16.271,50.022 17.611,50.377 C17.823,50.177 17.931,49.874 18.492,50.024 C20.048,47.094 15.559,44.861 14.789,47.202 Z" id="Shape" fill="#B8B8B8"></path>
    </g>
</svg>