<?xml version="1.0" encoding="UTF-8"?>
<svg width="448px" height="416px" viewBox="0 0 448 416" version="1.1" xmlns="http://www.w3.org/2000/svg" xmlns:xlink="http://www.w3.org/1999/xlink">
    <!-- Generator: Sketch 41.2 (35397) - http://www.bohemiancoding.com/sketch -->
    <title>Artboard</title>
    <desc>Created with Sketch.</desc>
    <defs></defs>
    <g id="Page-1" stroke="none" stroke-width="1" fill="none" fill-rule="evenodd">
        <g id="Artboard" fill="#1E455B">
            <g id="dinosaur" transform="translate(182.112038, 227.340900) rotate(-1.000000) translate(-182.112038, -227.340900) translate(-10.887962, 47.340900)">
                <path d="M6.57783015,326.809782 C7.9771326,323.641496 11.3661478,322.012573 15.3560006,320.575661 C36.5735824,312.930647 58.6614649,307.695237 79.1960328,298.264929 C111.705424,283.347299 105.106602,284.03732 123.404841,309.272434 C134.465305,324.518645 147.883278,334.354206 168.759356,329.074986 C187.244874,324.40912 206.016815,325.318198 224.524366,330.60837 C230.671517,332.360808 235.000961,337.223825 240.487129,339.239129 C246.964771,341.615873 239.517686,352.590518 239.517686,352.590518 C239.517686,352.590518 247.51559,351.703345 252.968709,344.332153 C255.910088,345.460285 257.221038,347.234627 256.460907,352.853384 C260.570023,350.290442 262.02419,344.693593 261.880976,340.783466 C261.341173,324.781512 240.145619,303.883686 224.502332,306.490438 C202.216159,310.203417 178.92749,311.868231 159.35135,302.405065 C156.409971,300.981209 152.961838,295.91009 152.961838,295.91009 C152.961838,295.91009 162.7444,291.605663 168.219552,288.977006 C185.823757,281.857725 192.499696,279.459077 210.258129,273.226966 C230.781681,266.031018 229.481746,270.88308 235.650928,273.325542 C237.534734,274.059376 238.735521,278.790958 240.806605,281.31009 C243.770015,284.902588 241.55572,290.543247 241.55572,290.543247 C241.55572,290.543247 247.978279,285.176407 248.396904,281.594862 C248.859593,277.772355 245.499589,277.728545 247.526609,274.256525 C254.588119,274.541296 256.196515,276.195161 255.634677,284.771154 C262.464845,279.437172 262.641107,273.281732 259.380252,268.823966 C253.034808,260.149397 249.795987,246.841818 235.86024,247.236117 C225.383646,247.520888 214.763838,248.868075 204.694849,252.756297 C192.918317,257.312636 181.053655,261.682781 169.067814,265.647671 C162.336794,267.871078 154.999872,270.477831 148.841706,264.278578 C142.397113,257.794559 140.348063,244.826514 144.049573,237.104832 C147.409574,230.062221 150.967871,223.085326 154.052463,215.922234 C162.678304,195.867768 172.493913,176.481419 185.845791,159.055611 C190.92435,152.429203 197.501141,147.730478 205.278718,144.510373 C233.018009,133.009996 262.365696,128.398893 291.91168,125.036402 C303.005193,123.776837 314.308017,123.59064 325.412548,127.456957 C333.48757,130.271811 342.300689,131.005645 350.695184,128.486515 C358.274467,126.208345 364.619912,121.378187 364.840239,112.95553 C364.939388,108.651104 362.692044,107.347728 360.059122,106.460556 C359.199843,106.164832 358.197353,103.645702 358.197353,103.645702 C356.787251,105.814344 356.655057,105.452904 355.11276,105.113369 C354.583972,104.992889 353.54843,102.594239 353.052695,102.429948 C351.708692,104.094764 350.629085,104.938125 349.648626,104.664307 C349.009674,104.47811 347.522462,100.830848 347.202986,101.411343 C346.123379,103.393789 344.151443,103.514269 343.292163,103.328072 C342.509998,103.152829 341.92613,99.7355738 341.562589,100.458455 C340.791442,101.991838 339.083899,102.473759 338.224619,102.309467 C337.6738,102.19994 337.6738,99.1550785 337.387374,99.6260465 C336.561144,101.027997 334.985798,101.301815 334.181602,101.15943 C332.936748,100.929422 331.471569,96.865956 331.174124,98.092663 C330.843633,99.3741333 328.640354,99.8012902 327.825139,99.6260465 C326.866711,99.4179443 326.304877,96.1211698 325.765073,96.9426252 C324.806646,98.4102923 322.768614,98.7936382 322.107628,98.6074417 C321.281398,98.3774341 322.107628,96.6249959 321.413596,95.6063911 C321.413596,95.6063911 318.428152,97.9064662 317.745135,97.6545533 C317.084149,97.4026403 317.899364,95.4968638 317.238381,95.2230452 C315.387624,94.4563533 313.746183,94.0730074 311.961525,93.0105919 C314.164804,92.0796088 316.070641,91.4333974 317.800215,90.480509 C321.215299,88.5856849 323.991434,83.3064647 332.969797,82.5397728 C336.649274,82.2221432 340.350784,80.2287447 335.349339,78.8925106 C328.58527,77.0962614 316.764676,80.6449488 314.991034,80.7325708 C305.21949,81.2035385 295.458959,81.564979 285.69843,77.3481743 C288.430497,75.4423977 291.195614,74.839997 296.483485,74.664753 L299.479945,71.4665531 C299.479945,71.4665531 303.159421,72.145623 303.99667,74.5880838 L306.144865,70.6122395 C306.144865,70.6122395 309.141328,70.6998615 311.025131,73.9309196 L314.098705,69.418391 C314.098705,69.418391 316.235888,70.9517744 316.775692,72.8356456 L318.549331,68.3888333 C318.549331,68.3888333 321.545793,69.9441225 320.862777,72.6056381 C320.730579,73.0766057 323.044022,68.1369204 323.044022,68.1369204 C323.044022,68.1369204 324.542253,70.8860581 324.839695,73.4928099 L326.866711,67.1621266 C326.866711,67.1621266 328.574255,66.8554499 328.915762,71.3460729 C329.003895,72.3537252 331.824091,66.8554499 331.824091,66.8554499 C331.824091,66.8554499 334.820554,67.1073628 335.889143,71.7075135 L339.105933,65.3220664 C339.105933,65.3220664 341.243113,68.903612 342.443902,73.4928099 L345.396297,65.9573253 C345.396297,65.9573253 347.577542,69.1555252 348.866461,73.8761558 L352.590005,65.7054121 C352.590005,65.7054121 355.024628,66.603537 356.831319,72.4742051 L358.626992,65.0701532 C358.626992,65.0701532 363.55132,66.3516238 363.033551,75.7928852 C362.846272,79.3306201 365.94188,70.9736798 366.06306,64.5663274 C366.06306,64.5663274 368.872241,65.4534992 369.533227,68.5421717 L371.703456,63.0329436 C371.703456,63.0329436 374.402474,63.1643766 374.909228,66.2311436 C375.195655,67.9288182 378.54464,60.8204903 379.403919,58.9475719 C379.403919,58.2685021 379.403919,57.5894322 379.470018,56.8775041 C365.875781,26.4836521 351.356167,15.9142585 318.13071,14.0632454 C308.755753,13.5484668 299.226568,12.7598695 289.686367,15.9142585 C284.497641,17.6338385 279.540264,12.7817749 275.034555,9.83548817 C268.3476,5.4762976 263.368189,4.31530726 260.713236,14.0741983 C259.391268,18.8605455 255.722807,23.000681 249.961231,21.149668 C228.776696,14.337064 209.729343,22.0587454 192.092087,31.3466685 C162.039352,47.1843298 136.084715,68.9693287 120.34228,99.3303226 C102.81519,133.119524 73.5666515,142.823651 39.0743063,144.488467 C29.2865071,144.95974 19.5189125,144.895737 9.76215355,144.537477 L6.57783015,326.809782 Z" id="Combined-Shape" transform="translate(193.023924, 179.724868) rotate(2.000000) translate(-193.023924, -179.724868) "></path>
            </g>
        </g>
    </g>
</svg>